<svg version="1.2" xmlns="http://www.w3.org/2000/svg" viewBox="0 0 588 465" width="588" height="465">
	<title>about-svg</title>
	<defs>
		<radialGradient id="g1" cx="87.4" cy="34" r="82.7" gradientUnits="userSpaceOnUse">
			<stop offset="0" stop-color="#f7f8f3"/>
			<stop offset=".601" stop-color="#aade87"/>
			<stop offset="1" stop-color="#52ada2"/>
		</radialGradient>
		<linearGradient id="g2" x1="490.1" y1="484.6" x2="252.1" y2="323.9" gradientUnits="userSpaceOnUse">
			<stop offset="0" stop-color="#908db9"/>
			<stop offset=".816" stop-color="#a9a9c4"/>
			<stop offset="1" stop-color="#ebecef"/>
		</linearGradient>
		<linearGradient id="g3" x1="590" y1="234.1" x2="542.9" y2="400" gradientUnits="userSpaceOnUse">
			<stop offset=".251" stop-color="#f7f8f3"/>
			<stop offset="1" stop-color="#000000"/>
		</linearGradient>
		<linearGradient id="g4" x1="591.1" y1="233.8" x2="544" y2="399.7" gradientUnits="userSpaceOnUse">
			<stop offset=".251" stop-color="#f7f8f3"/>
			<stop offset="1" stop-color="#000000"/>
		</linearGradient>
		<linearGradient id="g5" x1="599.8" y1="221.8" x2="552.8" y2="387.7" gradientUnits="userSpaceOnUse">
			<stop offset=".251" stop-color="#f7f8f3"/>
			<stop offset="1" stop-color="#000000"/>
		</linearGradient>
		<linearGradient id="g6" x1="92.6" y1="320.2" x2="55.4" y2="217.2" gradientUnits="userSpaceOnUse">
			<stop offset="0" stop-color="#908db9"/>
			<stop offset=".816" stop-color="#a9a9c4"/>
			<stop offset="1" stop-color="#ebecef"/>
		</linearGradient>
		<linearGradient id="g7" x1="194.2" y1="260.3" x2="135.6" y2="307.1" gradientUnits="userSpaceOnUse">
			<stop offset=".251" stop-color="#f7f8f3"/>
			<stop offset="1" stop-color="#000000"/>
		</linearGradient>
		<linearGradient id="g8" x1="194.6" y1="260.4" x2="136" y2="307.2" gradientUnits="userSpaceOnUse">
			<stop offset=".251" stop-color="#f7f8f3"/>
			<stop offset="1" stop-color="#000000"/>
		</linearGradient>
		<linearGradient id="g9" x1="200.8" y1="258.3" x2="142.2" y2="305.2" gradientUnits="userSpaceOnUse">
			<stop offset=".251" stop-color="#f7f8f3"/>
			<stop offset="1" stop-color="#000000"/>
		</linearGradient>
		<linearGradient id="g10" x1="508.4" y1="198.5" x2="409.9" y2="139.6" gradientUnits="userSpaceOnUse">
			<stop offset="0" stop-color="#52ada2"/>
			<stop offset=".689" stop-color="#f7f8f3"/>
			<stop offset="1" stop-color="#97d3bc"/>
		</linearGradient>
		<radialGradient id="g11" cx="487.1" cy="150.3" r="70.3" gradientUnits="userSpaceOnUse">
			<stop offset=".251" stop-color="#f7f8f3"/>
			<stop offset="1" stop-color="#000000"/>
		</radialGradient>
		<radialGradient id="g12" cx="487" cy="151" r="70.3" gradientUnits="userSpaceOnUse">
			<stop offset=".251" stop-color="#f7f8f3"/>
			<stop offset="1" stop-color="#000000"/>
		</radialGradient>
		<radialGradient id="g13" cx="487.3" cy="150.9" r="70.3" gradientUnits="userSpaceOnUse">
			<stop offset=".251" stop-color="#f7f8f3"/>
			<stop offset="1" stop-color="#000000"/>
		</radialGradient>
		<radialGradient id="g14" cx="485.5" cy="154.7" r="70.3" gradientUnits="userSpaceOnUse">
			<stop offset=".251" stop-color="#f7f8f3"/>
			<stop offset="1" stop-color="#000000"/>
		</radialGradient>
		<linearGradient id="g15" x1="31.4" y1="326.9" x2="115.8" y2="326.9" gradientUnits="userSpaceOnUse">
			<stop offset="0" stop-color="#908db9"/>
			<stop offset=".652" stop-color="#ebecef"/>
			<stop offset=".816" stop-color="#a9a9c4"/>
		</linearGradient>
		<radialGradient id="g16" cx="78" cy="402.5" r="49.1" gradientUnits="userSpaceOnUse">
			<stop offset=".251" stop-color="#f7f8f3"/>
			<stop offset="1" stop-color="#000000"/>
		</radialGradient>
		<radialGradient id="g17" cx="78.7" cy="402.2" r="49.1" gradientUnits="userSpaceOnUse">
			<stop offset=".251" stop-color="#f7f8f3"/>
			<stop offset="1" stop-color="#000000"/>
		</radialGradient>
		<radialGradient id="g18" cx="78.4" cy="402" r="49.1" gradientUnits="userSpaceOnUse">
			<stop offset=".251" stop-color="#f7f8f3"/>
			<stop offset="1" stop-color="#000000"/>
		</radialGradient>
		<radialGradient id="g19" cx="82.6" cy="400.8" r="49.1" gradientUnits="userSpaceOnUse">
			<stop offset=".251" stop-color="#f7f8f3"/>
			<stop offset="1" stop-color="#000000"/>
		</radialGradient>
		<linearGradient id="g20" x1="481.4" y1="95.1" x2="406.4" y2="294.4" gradientUnits="userSpaceOnUse">
			<stop offset=".251" stop-color="#f7f8f3"/>
			<stop offset="1" stop-color="#000000"/>
		</linearGradient>
		<linearGradient id="g21" x1="102.2" y1="262.6" x2="-11.8" y2="129.7" gradientUnits="userSpaceOnUse">
			<stop offset="0" stop-color="#52ada2"/>
			<stop offset=".187" stop-color="#908db9"/>
			<stop offset=".567" stop-color="#f7f8f3"/>
			<stop offset=".696" stop-color="#52ada2"/>
			<stop offset="1" stop-color="#97d3bc"/>
		</linearGradient>
		<linearGradient id="g22" x1="269.8" y1="131.1" x2="211.6" y2="197.9" gradientUnits="userSpaceOnUse">
			<stop offset=".251" stop-color="#f7f8f3"/>
			<stop offset="1" stop-color="#000000"/>
		</linearGradient>
		<linearGradient id="g23" x1="270.4" y1="130.8" x2="212.2" y2="197.5" gradientUnits="userSpaceOnUse">
			<stop offset=".251" stop-color="#f7f8f3"/>
			<stop offset="1" stop-color="#000000"/>
		</linearGradient>
		<linearGradient id="g24" x1="275.3" y1="128" x2="216.7" y2="195.2" gradientUnits="userSpaceOnUse">
			<stop offset=".251" stop-color="#f7f8f3"/>
			<stop offset="1" stop-color="#000000"/>
		</linearGradient>
		<linearGradient id="g25" x1="77.9" y1="192.5" x2="228.4" y2="55.6" gradientUnits="userSpaceOnUse">
			<stop offset="0" stop-color="#52ada2"/>
			<stop offset=".187" stop-color="#908db9"/>
			<stop offset=".718" stop-color="#52ada2"/>
			<stop offset=".842" stop-color="#f7f8f3"/>
			<stop offset="1" stop-color="#97d3bc"/>
		</linearGradient>
		<radialGradient id="g26" cx="224.5" cy="195.8" r="137.6" gradientUnits="userSpaceOnUse">
			<stop offset=".251" stop-color="#f7f8f3"/>
			<stop offset="1" stop-color="#000000"/>
		</radialGradient>
		<radialGradient id="g27" cx="224.9" cy="197.1" r="137.6" gradientUnits="userSpaceOnUse">
			<stop offset=".251" stop-color="#f7f8f3"/>
			<stop offset="1" stop-color="#000000"/>
		</radialGradient>
		<radialGradient id="g28" cx="232.9" cy="204.3" r="132.2" gradientUnits="userSpaceOnUse">
			<stop offset=".251" stop-color="#f7f8f3"/>
			<stop offset="1" stop-color="#000000"/>
		</radialGradient>
		<linearGradient id="g29" x1="517.7" y1="435.9" x2="405.1" y2="493.8" gradientUnits="userSpaceOnUse">
			<stop offset="0" stop-color="#52ada2"/>
			<stop offset=".187" stop-color="#908db9"/>
			<stop offset=".718" stop-color="#52ada2"/>
			<stop offset=".842" stop-color="#f7f8f3"/>
			<stop offset="1" stop-color="#97d3bc"/>
		</linearGradient>
		<radialGradient id="g30" cx="418.6" cy="399.9" r="83.5" gradientUnits="userSpaceOnUse">
			<stop offset=".251" stop-color="#f7f8f3"/>
			<stop offset="1" stop-color="#000000"/>
		</radialGradient>
		<radialGradient id="g31" cx="418.5" cy="399.1" r="83.5" gradientUnits="userSpaceOnUse">
			<stop offset=".251" stop-color="#f7f8f3"/>
			<stop offset="1" stop-color="#000000"/>
		</radialGradient>
		<radialGradient id="g32" cx="415.6" cy="394.3" r="80.1" gradientUnits="userSpaceOnUse">
			<stop offset=".251" stop-color="#f7f8f3"/>
			<stop offset="1" stop-color="#000000"/>
		</radialGradient>
		<linearGradient id="g33" x1="135.5" y1="401.8" x2="74.9" y2="333.8" gradientUnits="userSpaceOnUse">
			<stop offset="0" stop-color="#52ada2"/>
			<stop offset="1" stop-color="#aade87"/>
		</linearGradient>
		<radialGradient id="g34" cx="136.9" cy="336.1" r="48.3" gradientUnits="userSpaceOnUse">
			<stop offset=".225" stop-color="#f7f8f3"/>
			<stop offset="1" stop-color="#000000"/>
		</radialGradient>
		<radialGradient id="g35" cx="137.3" cy="335.8" r="48.3" gradientUnits="userSpaceOnUse">
			<stop offset=".225" stop-color="#f7f8f3"/>
			<stop offset="1" stop-color="#000000"/>
		</radialGradient>
		<radialGradient id="g36" cx="146.7" cy="327.4" r="45.5" gradientUnits="userSpaceOnUse">
			<stop offset=".225" stop-color="#f7f8f3"/>
			<stop offset="1" stop-color="#000000"/>
		</radialGradient>
		<linearGradient id="g37" x1="248.8" y1="37.1" x2="338.1" y2="2.9" gradientUnits="userSpaceOnUse">
			<stop offset="0" stop-color="#52ada2"/>
			<stop offset="1" stop-color="#aade87"/>
		</linearGradient>
		<radialGradient id="g38" cx="314.4" cy="67.2" r="48.3" gradientUnits="userSpaceOnUse">
			<stop offset=".225" stop-color="#f7f8f3"/>
			<stop offset="1" stop-color="#000000"/>
		</radialGradient>
		<radialGradient id="g39" cx="314.6" cy="67.7" r="48.3" gradientUnits="userSpaceOnUse">
			<stop offset=".225" stop-color="#f7f8f3"/>
			<stop offset="1" stop-color="#000000"/>
		</radialGradient>
		<radialGradient id="g40" cx="318.9" cy="78.9" r="45.5" gradientUnits="userSpaceOnUse">
			<stop offset=".225" stop-color="#f7f8f3"/>
			<stop offset="1" stop-color="#000000"/>
		</radialGradient>
		<linearGradient id="g41" x1="178.8" y1="224.9" x2="276.4" y2="148.2" gradientUnits="userSpaceOnUse">
			<stop offset="0" stop-color="#52ada2"/>
			<stop offset=".689" stop-color="#f7f8f3"/>
			<stop offset="1" stop-color="#97d3bc"/>
		</linearGradient>
		<linearGradient id="g42" x1="290.2" y1="400.5" x2="154.2" y2="228.3" gradientUnits="userSpaceOnUse">
			<stop offset=".251" stop-color="#f7f8f3"/>
			<stop offset="1" stop-color="#000000"/>
		</linearGradient>
		<linearGradient id="g43" x1="291.5" y1="401.7" x2="155.4" y2="229.5" gradientUnits="userSpaceOnUse">
			<stop offset=".251" stop-color="#f7f8f3"/>
			<stop offset="1" stop-color="#000000"/>
		</linearGradient>
		<linearGradient id="g44" x1="302" y1="416.9" x2="166" y2="244.7" gradientUnits="userSpaceOnUse">
			<stop offset=".251" stop-color="#f7f8f3"/>
			<stop offset="1" stop-color="#000000"/>
		</linearGradient>
		<linearGradient id="g45" x1="343.6" y1="77.5" x2="378.6" y2="70" gradientUnits="userSpaceOnUse">
			<stop offset="0" stop-color="#52ada2"/>
			<stop offset=".187" stop-color="#908db9"/>
			<stop offset=".718" stop-color="#52ada2"/>
			<stop offset=".842" stop-color="#f7f8f3"/>
			<stop offset="1" stop-color="#97d3bc"/>
		</linearGradient>
		<linearGradient id="g46" x1="349.4" y1="133.3" x2="333.7" y2="76.8" gradientUnits="userSpaceOnUse">
			<stop offset=".251" stop-color="#f7f8f3"/>
			<stop offset="1" stop-color="#000000"/>
		</linearGradient>
		<linearGradient id="g47" x1="349.5" y1="133.7" x2="333.8" y2="77.2" gradientUnits="userSpaceOnUse">
			<stop offset=".251" stop-color="#f7f8f3"/>
			<stop offset="1" stop-color="#000000"/>
		</linearGradient>
		<linearGradient id="g48" x1="350.3" y1="138.6" x2="334.6" y2="82.1" gradientUnits="userSpaceOnUse">
			<stop offset=".251" stop-color="#f7f8f3"/>
			<stop offset="1" stop-color="#000000"/>
		</linearGradient>
		<radialGradient id="g49" cx="174.3" cy="118.7" r="62.5" gradientUnits="userSpaceOnUse">
			<stop offset="0" stop-color="#f7f8f3"/>
			<stop offset=".596" stop-color="#addcca"/>
			<stop offset="1" stop-color="#52ada2"/>
		</radialGradient>
		<radialGradient id="g50" cx="179.1" cy="347.2" r="120" gradientUnits="userSpaceOnUse">
			<stop offset="0" stop-color="#f7f8f3"/>
			<stop offset=".598" stop-color="#d0d1e1"/>
			<stop offset="1" stop-color="#a9a9c4"/>
		</radialGradient>
		<radialGradient id="g51" cx="485.3" cy="238.4" r="82.7" gradientUnits="userSpaceOnUse">
			<stop offset="0" stop-color="#f7f8f3"/>
			<stop offset=".601" stop-color="#aade87"/>
			<stop offset="1" stop-color="#a9b6b5"/>
		</radialGradient>
		<radialGradient id="g52" cx="485.6" cy="98.8" r="30.4" gradientUnits="userSpaceOnUse">
			<stop offset="0" stop-color="#f7f8f3"/>
			<stop offset=".603" stop-color="#a9a9c4"/>
			<stop offset="1" stop-color="#addcca"/>
		</radialGradient>
		<radialGradient id="g53" cx="16.2" cy="244.4" r="30.4" gradientUnits="userSpaceOnUse">
			<stop offset="0" stop-color="#f7f8f3"/>
			<stop offset=".603" stop-color="#a9a9c4"/>
			<stop offset="1" stop-color="#addcca"/>
		</radialGradient>
		<radialGradient id="g54" cx="271.2" cy="329.2" r="40.1" gradientUnits="userSpaceOnUse">
			<stop offset="0" stop-color="#f7f8f3"/>
			<stop offset=".596" stop-color="#ebecef"/>
			<stop offset="1" stop-color="#d0d1e1"/>
		</radialGradient>
		<radialGradient id="g55" cx="326.6" cy="20.5" r="28.2" gradientUnits="userSpaceOnUse">
			<stop offset="0" stop-color="#f7f8f3"/>
			<stop offset=".596" stop-color="#ebecef"/>
			<stop offset="1" stop-color="#d0d1e1"/>
		</radialGradient>
	</defs>
	<style>
		.s0 { fill: url(#g1) } 
		.s1 { fill: url(#g2) } 
		.s2 { fill: #d0d1e1 } 
		.s3 { opacity: .3;mix-blend-mode: screen;fill: url(#g3) } 
		.s4 { opacity: .3;mix-blend-mode: screen;fill: url(#g4) } 
		.s5 { opacity: .2;mix-blend-mode: screen;fill: url(#g5) } 
		.s6 { fill: url(#g6) } 
		.s7 { opacity: .3;mix-blend-mode: screen;fill: url(#g7) } 
		.s8 { opacity: .3;mix-blend-mode: screen;fill: url(#g8) } 
		.s9 { opacity: .2;mix-blend-mode: screen;fill: url(#g9) } 
		.s10 { fill: url(#g10) } 
		.s11 { fill: #addcca } 
		.s12 { opacity: .3;mix-blend-mode: screen;fill: url(#g11) } 
		.s13 { opacity: .3;mix-blend-mode: screen;fill: url(#g12) } 
		.s14 { opacity: .3;mix-blend-mode: screen;fill: url(#g13) } 
		.s15 { opacity: .2;mix-blend-mode: screen;fill: url(#g14) } 
		.s16 { fill: url(#g15) } 
		.s17 { mix-blend-mode: screen;fill: #a9a9c4 } 
		.s18 { opacity: .3;mix-blend-mode: screen;fill: url(#g16) } 
		.s19 { opacity: .3;mix-blend-mode: screen;fill: url(#g17) } 
		.s20 { opacity: .2;mix-blend-mode: screen;fill: url(#g18) } 
		.s21 { opacity: .2;mix-blend-mode: screen;fill: url(#g19) } 
		.s22 { mix-blend-mode: multiply;fill: #a9a9c4 } 
		.s23 { mix-blend-mode: multiply } 
		.s24 { fill: #a9a9c4 } 
		.s25 { opacity: .2;mix-blend-mode: screen;fill: url(#g20) } 
		.s26 { fill: url(#g21) } 
		.s27 { fill: #52ada2 } 
		.s28 { opacity: .5;mix-blend-mode: screen;fill: url(#g22) } 
		.s29 { opacity: .3;mix-blend-mode: screen;fill: url(#g23) } 
		.s30 { opacity: .2;mix-blend-mode: screen;fill: url(#g24) } 
		.s31 { fill: url(#g25) } 
		.s32 { fill: #aade87 } 
		.s33 { opacity: .3;mix-blend-mode: screen;fill: url(#g26) } 
		.s34 { opacity: .2;mix-blend-mode: screen;fill: url(#g27) } 
		.s35 { opacity: .2;mix-blend-mode: screen;fill: url(#g28) } 
		.s36 { fill: url(#g29) } 
		.s37 { mix-blend-mode: screen;fill: #52ada2 } 
		.s38 { opacity: .2;mix-blend-mode: screen;fill: url(#g30) } 
		.s39 { opacity: .2;mix-blend-mode: screen;fill: url(#g31) } 
		.s40 { opacity: .2;mix-blend-mode: screen;fill: url(#g32) } 
		.s41 { fill: url(#g33) } 
		.s42 { opacity: .2;mix-blend-mode: screen;fill: url(#g34) } 
		.s43 { opacity: .2;mix-blend-mode: screen;fill: url(#g35) } 
		.s44 { opacity: .2;mix-blend-mode: screen;fill: url(#g36) } 
		.s45 { fill: url(#g37) } 
		.s46 { opacity: .2;mix-blend-mode: screen;fill: url(#g38) } 
		.s47 { opacity: .2;mix-blend-mode: screen;fill: url(#g39) } 
		.s48 { opacity: .2;mix-blend-mode: screen;fill: url(#g40) } 
		.s49 { fill: #ebecef } 
		.s50 { fill: url(#g41) } 
		.s51 { opacity: .5;mix-blend-mode: screen;fill: url(#g42) } 
		.s52 { opacity: .3;mix-blend-mode: screen;fill: url(#g43) } 
		.s53 { opacity: .2;mix-blend-mode: screen;fill: url(#g44) } 
		.s54 { fill: url(#g45) } 
		.s55 { opacity: .5;mix-blend-mode: screen;fill: url(#g46) } 
		.s56 { opacity: .3;mix-blend-mode: screen;fill: url(#g47) } 
		.s57 { opacity: .2;mix-blend-mode: screen;fill: url(#g48) } 
		.s58 { fill: url(#g49) } 
		.s59 { fill: url(#g50) } 
		.s60 { fill: url(#g51) } 
		.s61 { fill: url(#g52) } 
		.s62 { fill: url(#g53) } 
		.s63 { fill: url(#g54) } 
		.s64 { fill: url(#g55) } 
	</style>
	<path id="Layer" class="s0" d="m159.1 61.7c0 26.7-24.3 48.3-54.2 48.3-30 0-54.2-21.6-54.2-48.3 0-26.6 24.2-48.2 54.2-48.2 29.9 0 54.2 21.6 54.2 48.2z"/>
	<path id="Layer" class="s1" d="m456 195.7l102.3 175c3 5.1 1.9 10.8-1.6 14.8-2.8 3.2-9.3 11.3-9.3 11.3l-207.3-6c-11.6 0-19.1-10.9-13.7-20.1l94.4-165.4 7.8-9.6c6.6-9.6 21.6-9.8 27.4 0z"/>
	<path id="Layer" class="s2" d="m446.5 207.4l102.2 174.9c5.4 9.2-2 20.1-13.7 20.1h-204.4c-11.6 0-19.1-10.9-13.7-20.1l102.2-174.9c5.8-10 21.7-10 27.4 0z"/>
	<path id="Layer" class="s3" d="m316.1 384.9l102.3-175c5.8-9.8 21.6-9.8 27.4 0l102.2 175c1.6 2.7 2.1 5.6 1.6 8.3 1.3-3.4 1.3-7.3-0.9-10.9l-102.2-174.9c-5.7-10-21.6-10-27.4 0l-102.2 174.9c-0.9 1.4-1.3 2.8-1.6 4.2q0.4-0.8 0.8-1.6z"/>
	<path id="Layer" class="s4" d="m317.2 384.6l102.2-175c5.9-9.9 21.7-9.9 27.5 0l102.2 175c1.6 2.7 2.1 5.5 1.6 8.2 1.4-3.3 1.3-7.2-0.9-10.9l-102.2-174.9c-5.8-9.9-21.7-9.9-27.4 0l-102.2 174.9c-0.9 1.5-1.4 2.9-1.6 4.3q0.4-0.9 0.8-1.6z"/>
	<path id="Layer" class="s5" d="m325.9 372.6l102.3-175c5.8-9.8 21.6-9.8 27.4 0l102.2 175c1.6 2.8 2.1 5.7 1.6 8.3 1.4-3.4 1.3-7.2-0.9-10.9l-102.2-174.9c-5.7-9.9-21.6-9.9-27.4 0l-102.2 174.9c-0.8 1.4-1.3 2.9-1.6 4.3q0.4-0.8 0.8-1.7z"/>
	<path id="Layer" class="s6" d="m161 218.5l-14.8 79.4c-0.4 2.3-2.3 3.9-4.5 4.5-1.8 0.4-6.2 1.6-6.2 1.6l-66-47.2c-3.8-2.5-3.2-7.6 1.1-9.5l76.3-33.4 5.2-1.3c4.8-1.8 9.8 1.4 8.9 5.9z"/>
	<path id="Layer" class="s2" d="m154.7 220.2l-14.7 79.4c-0.9 4.1-6.3 6.1-10.1 3.6l-66.7-44.7c-3.8-2.4-3.2-7.6 1.1-9.5l81.5-34.7c4.6-2 9.7 1.4 8.9 5.9z"/>
	<path id="Layer" class="s7" d="m63.4 249.7l81.4-34.8c4.6-1.9 9.8 1.5 9 6l-14.8 79.4c-0.2 1.2-0.9 2.3-1.8 3.1 1.4-0.9 2.5-2.1 2.8-3.8l14.7-79.4c0.8-4.5-4.3-7.9-8.9-5.9l-81.5 34.7q-1 0.4-1.7 1.1 0.3-0.2 0.8-0.4z"/>
	<path id="Layer" class="s8" d="m63.8 249.8l81.5-34.7c4.5-2 9.8 1.5 8.9 5.9l-14.8 79.4c-0.2 1.2-0.8 2.3-1.7 3.1 1.3-0.9 2.4-2.1 2.7-3.8l14.8-79.3c0.8-4.6-4.4-8-9-6l-81.4 34.8q-1.1 0.4-1.7 1 0.2-0.2 0.7-0.4z"/>
	<path id="Layer" class="s9" d="m69.9 247.8l81.5-34.7c4.6-2 9.8 1.5 8.9 6l-14.7 79.3c-0.3 1.3-0.9 2.3-1.8 3 1.4-0.7 2.4-2 2.7-3.6l14.8-79.5c0.9-4.4-4.4-7.9-8.9-5.9l-81.5 34.8q-1.1 0.4-1.7 1 0.3-0.2 0.7-0.4z"/>
	<path id="Layer" fill-rule="evenodd" class="s10" d="m540.4 141.2c-2.7 23.3-36.3 35.8-74.6 22.3-38.3-13.5-53.3-43.1-37.3-61.6 12.9-15.1 42.7-17.9 68.6-8.8 25.9 9.1 45.4 29.3 43.3 48.1zm-23.5-8.2c2.7-10.9-8.5-23.5-24.6-29.2-16.1-5.6-33.9-3.3-40.4 6.3-7.2 10.8 2.4 26.5 22.7 33.6 20.2 7.1 39.3 1.6 42.3-10.7z"/>
	<path id="Layer" fill-rule="evenodd" class="s11" d="m541.9 137c-2.5 23.3-36.3 35.7-74.5 22.3-38.3-13.5-53.3-43.1-37.3-61.7 12.9-15 42.6-17.8 68.5-8.7 25.9 9.1 45.5 29.3 43.3 48.1zm-23.4-8.3c2.6-10.9-8.5-23.4-24.6-29.1-16.2-5.7-33.9-3.3-40.4 6.3-7.3 10.8 2.5 26.4 22.7 33.5 20.2 7.2 39.3 1.7 42.3-10.7z"/>
	<path id="Layer" class="s12" d="m493.9 99.6c14.3 5.1 24.7 15.5 25 25.5 0.3-10.2-10.2-21.1-25-26.3-16.2-5.7-33.9-3.3-40.4 6.2-1.7 2.6-2.5 5.3-2.4 8.2 0.1-2.5 0.9-5 2.4-7.3 6.5-9.6 24.2-12 40.4-6.3zm48 36.5c-2.5 23.4-36.3 35.9-74.5 22.3-27.5-9.6-43-27.6-43.6-43.9 0.1 16.5 15.6 34.9 43.6 44.8 38.2 13.4 72 1 74.5-22.3q0.3-1.8 0.2-3.6 0 1.4-0.2 2.7z"/>
	<path id="Layer" class="s13" d="m493.8 100.3c14.3 5.1 24.7 15.5 25 25.5 0.3-10.1-10.3-21.1-25-26.3-16.1-5.7-33.9-3.3-40.3 6.2-1.7 2.6-2.6 5.4-2.5 8.2 0.1-2.5 0.9-5 2.5-7.3 6.4-9.6 24.2-12 40.3-6.3zm48.1 36.6c-2.7 23.3-36.3 35.7-74.6 22.2-27.5-9.6-43-27.6-43.6-43.9 0.1 16.5 15.6 34.9 43.6 44.8 38.3 13.5 71.9 1 74.6-22.3q0.2-1.8 0.1-3.6 0 1.4-0.1 2.8z"/>
	<path id="Layer" class="s14" d="m494 100.2c14.4 5.1 24.8 15.6 25.1 25.5 0.3-10.2-10.3-21.1-25.1-26.3-16.1-5.7-33.8-3.3-40.3 6.3-1.7 2.5-2.5 5.3-2.4 8.1 0.1-2.6 0.8-5 2.4-7.3 6.5-9.6 24.2-12 40.3-6.3zm48.2 36.6c-2.7 23.3-36.3 35.7-74.6 22.3-27.6-9.7-43-27.7-43.7-44 0.2 16.4 15.7 34.9 43.7 44.8 38.3 13.4 71.9 1 74.6-22.3q0.1-1.8 0.1-3.6 0 1.4-0.1 2.8z"/>
	<path id="Layer" class="s15" d="m492.3 104.1c14.4 5 24.8 15.5 25 25.4 0.3-10.1-10.3-21.1-25-26.3-16.2-5.6-33.9-3.3-40.4 6.3-1.7 2.5-2.4 5.3-2.4 8.2 0.1-2.6 0.9-5.1 2.4-7.4 6.5-9.6 24.2-11.9 40.4-6.2zm48.1 36.5c-2.7 23.3-36.3 35.8-74.6 22.3-27.5-9.7-43-27.7-43.6-44 0.1 16.5 15.6 35 43.6 44.8 38.3 13.5 71.9 1 74.6-22.2q0.1-1.9 0.1-3.6 0 1.3-0.1 2.7z"/>
	<path id="Layer" fill-rule="evenodd" class="s16" d="m48.1 331.4c20.4-12.5 50.9 1.5 63.3 34.2 12.4 32.7-2.4 60.3-27.2 61.3-19.9 1-40.3-16.4-48.6-38.5-8.4-22.2-4-46.9 12.5-57zm7.6 20c-10.4 5-13.8 19.7-8.6 33.5 5.3 13.8 17.9 23.7 29.6 22.1 13.1-2 19.9-17.7 13.4-35-6.6-17.3-22.6-26.1-34.4-20.6z"/>
	<g id="Layer" style="opacity: .3">
		<path id="Layer" fill-rule="evenodd" class="s17" d="m43.6 333c20.5-12.5 51 1.5 63.4 34.1 12.4 32.8-2.4 60.4-27.1 61.4-20 0.9-40.4-16.5-48.7-38.6-8.4-22.1-4-46.9 12.4-56.9zm7.6 20c-10.4 4.9-13.7 19.7-8.5 33.5 5.2 13.8 17.9 23.7 29.6 22 13.2-1.9 19.9-17.6 13.3-34.9-6.5-17.3-22.5-26.2-34.4-20.6z"/>
	</g>
	<path id="Layer" class="s18" d="m42.7 386.5c-4.7-12.3-2.4-25.3 5.4-31.5-8.4 6-10.8 19.4-6.1 32 5.3 13.7 18 23.7 29.6 22 3.1-0.5 5.8-1.6 8.1-3.5-2.1 1.6-4.6 2.6-7.4 3-11.7 1.7-24.4-8.2-29.6-22zm0.4-53.1c20.3-12.4 50.9 1.6 63.3 34.3 8.8 23.4 3.7 44.3-9 54.6 13.2-10.1 18.6-31.2 9.6-55.2-12.4-32.6-42.9-46.6-63.4-34.1q-1.5 0.9-2.9 2.1 1.1-0.9 2.4-1.7z"/>
	<path id="Layer" class="s19" d="m43.4 386.1c-4.7-12.2-2.6-25.3 5.3-31.5-8.4 6-10.8 19.4-6 32 5.2 13.8 17.9 23.7 29.6 22 3-0.5 5.7-1.6 8-3.4-2.1 1.5-4.6 2.6-7.4 2.9-11.6 1.7-24.4-8.2-29.5-22zm0.2-53c20.5-12.5 51 1.5 63.4 34.2 8.9 23.5 3.7 44.3-9 54.6 13.2-10.1 18.7-31.2 9.6-55.1-12.4-32.7-42.8-46.7-63.3-34.2q-1.5 1-3 2.1 1.1-0.9 2.3-1.6z"/>
	<path id="Layer" class="s20" d="m43.1 386c-4.6-12.3-2.5-25.3 5.3-31.5-8.4 5.9-10.7 19.4-6 32 5.2 13.8 17.9 23.7 29.6 22 3.1-0.4 5.8-1.7 8.1-3.4-2.1 1.5-4.6 2.5-7.5 2.9-11.6 1.7-24.3-8.3-29.5-22zm0.3-53c20.4-12.5 50.9 1.5 63.3 34.2 8.9 23.5 3.8 44.3-9 54.6 13.3-10.1 18.7-31.2 9.7-55.1-12.4-32.7-42.9-46.7-63.3-34.2q-1.6 0.9-3 2.1 1.1-0.9 2.3-1.6z"/>
	<path id="Layer" class="s21" d="m47.3 384.8c-4.7-12.3-2.5-25.3 5.3-31.5-8.4 6-10.7 19.4-6 32 5.2 13.8 17.9 23.7 29.6 22 3.1-0.5 5.7-1.7 8-3.4-2.1 1.5-4.5 2.5-7.3 2.9-11.7 1.7-24.4-8.2-29.6-22zm0.3-53.1c20.4-12.4 51 1.5 63.3 34.3 8.9 23.5 3.7 44.3-9 54.6 13.3-10.1 18.7-31.2 9.6-55.1-12.3-32.7-42.8-46.7-63.3-34.2q-1.5 1-2.9 2.1 1.1-0.9 2.3-1.7z"/>
	<g id="Layer" style="opacity: .5">
		<path id="Layer" class="s22" d="m86.3 397.9c0-0.2 0-0.6 0-1q-0.3 0.7-0.5 1.3 0.3 0.1 0.6 0.2-0.1-0.2-0.1-0.4zm-57.6-43.7q7.1 9.8 16.2 18.1c-0.1-2.7 0.2-5.3 0.8-7.8-5.3-5.5-10.1-11.3-14.2-17.6q-1.7 3.5-2.8 7.3zm85.9 46.2q-0.3-0.1-0.7-0.2 0 0.1 0 0.1c0.1 0.6 0 1.8-0.1 3q0.4-1.5 0.8-2.9z"/>
	</g>
	<g id="Layer" style="opacity: .5">
		<path id="Layer" class="s23" d="m42.2 316.1h125.7v115.7h-125.7z"/>
	</g>
	<path id="Layer" class="s11" d="m142.7 161.6c-73.6 0-133.2 53.1-133.2 118.6 0 48.2 32.4 89.6 78.7 108.2q0-0.3 0-0.6c0-1.1-0.1-4.8-0.3-6.1-42.4-18.1-71.8-56.8-71.8-101.5 0-62.3 56.7-112.7 126.6-112.7 69.9 0 126.5 50.4 126.5 112.7 0 62.2-56.6 112.6-126.5 112.6-9.2 0-18.2-0.9-26.9-2.5q0 0 0 0c0.1 1.1-0.3 4.9-0.5 5.8 8.9 1.7 17.9 2.6 27.4 2.6 73.5 0 133.1-53.1 133.1-118.5 0-65.5-59.6-118.6-133.1-118.6z"/>
	<path id="Layer" fill-rule="evenodd" class="s24" d="m400.2 160.1c0 56.3-51.2 102-114.5 102-63.2 0-114.5-45.7-114.5-102 0-56.3 51.3-101.9 114.5-101.9 63.3 0 114.5 45.6 114.5 101.9zm-24 0c0-44.4-40.5-80.5-90.5-80.5-50 0-90.5 36.1-90.5 80.5 0 44.6 40.5 80.6 90.5 80.6 50 0 90.5-36 90.5-80.6z"/>
	<path id="Layer" fill-rule="evenodd" class="s25" d="m401.6 160.1c0 57-51.9 103.2-115.9 103.2-64 0-115.9-46.2-115.9-103.2 0-56.9 51.9-103.1 115.9-103.1 64 0 115.9 46.2 115.9 103.1zm-4.3 0c0-54.8-50-99.3-111.6-99.3-61.6 0-111.6 44.5-111.6 99.3 0 54.9 50 99.4 111.6 99.4 61.6 0 111.6-44.5 111.6-99.4z"/>
	<g id="Layer" style="opacity: .5">
		<path id="Layer" class="s23" d="m0 125h269.6v116h-269.6z"/>
	</g>
	<g id="Layer" style="opacity: .5">
		<path id="Layer" class="s23" d="m10.3 31h199.1v115.4h-199.1z"/>
	</g>
	<path id="Layer" fill-rule="evenodd" class="s26" d="m38.3 84.2l151.1-23.6c5.2-0.9 9.6 1 9.6 4.1v134.4c0 3.1-4.4 5-9.6 4.2l-151.1-22.7c-2.4-0.4-4.3-2.3-4.3-4.3v-87.8c0-2 1.9-4 4.3-4.3zm149 106.5v-117.6c0-3-4.1-4.9-9.1-4.2l-134.6 19.1c-2.5 0.3-4.5 2.3-4.5 4.3v80.1c0 2.1 2 4 4.5 4.4l134.6 18.2c5 0.7 9.1-1.2 9.1-4.3z"/>
	<path id="Layer" fill-rule="evenodd" class="s27" d="m35.6 86.4l148-22.2c5.1-0.8 9.3 1.1 9.3 4.2v132.7c0 3-4.2 4.9-9.3 4l-148-23c-2.4-0.4-4.2-2.3-4.2-4.4v-87c0-2 1.8-3.9 4.2-4.3zm146 106.4v-116.2c0-3-4-4.9-9-4.2l-131.8 17.8c-2.4 0.4-4.3 2.3-4.3 4.4v79.3c0 2.1 1.9 4 4.3 4.4l131.8 18.7c5 0.6 9-1.2 9-4.2z"/>
	<path id="Layer" fill-rule="evenodd" class="s28" d="m192.9 68.4v132.7c0 1.1-0.5 2.1-1.6 2.8 0.6-0.6 0.9-1.3 0.9-2.2v-132.6c0-3.1-4.2-5-9.4-4.2l-147.9 22.2c-0.9 0.1-1.7 0.4-2.3 1 0.7-0.9 1.7-1.5 3-1.7l148-22.2c5.1-0.8 9.3 1.1 9.3 4.2zm-12.9 127.3c-1.5 1.6-4.5 2.4-8 1.9l-131.9-18.7c-2.4-0.3-4.4-2.3-4.4-4.3v-79.4c0-1.3 0.8-2.5 2-3.3-0.8 0.8-1.2 1.7-1.2 2.7v79.3c0 2.1 1.9 4 4.3 4.4l131.8 18.7c3.1 0.4 5.7-0.1 7.4-1.3z"/>
	<path id="Layer" fill-rule="evenodd" class="s29" d="m193.5 68.1v132.6c0 1.2-0.6 2.2-1.7 2.9 0.6-0.6 1-1.4 1-2.2v-132.7c0-3-4.3-5-9.4-4.2l-148 22.2c-0.8 0.2-1.6 0.6-2.3 1 0.7-0.8 1.8-1.4 3-1.5l148-22.3c5.2-0.7 9.4 1.1 9.4 4.2zm-13 127.2c-1.4 1.7-4.5 2.5-8 2l-131.9-18.7c-2.4-0.3-4.3-2.2-4.3-4.3v-79.4c0-1.3 0.8-2.5 1.9-3.4-0.8 0.8-1.2 1.7-1.2 2.7v79.5c0 2 1.9 3.9 4.4 4.3l131.8 18.7c3 0.4 5.6-0.2 7.3-1.4z"/>
	<path id="Layer" fill-rule="evenodd" class="s30" d="m198.9 65.8v132.9c0 1.2-0.6 2.2-1.6 2.9 0.6-0.7 0.9-1.4 0.9-2.2v-133c0-3-4.3-4.9-9.5-4.1l-149.5 22.2c-0.9 0.1-1.6 0.5-2.3 1 0.8-0.9 1.9-1.5 3.1-1.6l149.5-22.3c5.1-0.7 9.4 1.1 9.4 4.2zm-15.9 128.2c-1.5 1.5-4.5 2.4-8.1 1.9l-131.8-18.7c-2.4-0.3-4.3-2.3-4.3-4.3v-79.5c0-1.2 0.7-2.5 1.9-3.2-0.7 0.7-1.2 1.7-1.2 2.7v79.3c0 2.1 1.9 4 4.3 4.4l131.9 18.6c3 0.5 5.7-0.1 7.3-1.2z"/>
	<g id="Layer" style="opacity: .5">
		<path id="Layer" class="s23" d="m124.3 125.9h148.8v161.8h-148.8z"/>
	</g>
	<g id="Layer" style="opacity: .3">
		<path id="Layer" class="s23" d="m56.7 171.3h148.8v177.6h-148.8z"/>
	</g>
	<path id="Layer" class="s31" d="m205 266.5c3-2.8 3.1-7 0.6-10.1-16.3-19.5-14.7-47.1 4.8-65.1 19.7-18 50.7-20.1 73-6.3 3.6 2.3 8.4 1.9 11.3-0.8l16.6-15.3c2.9-2.6 3.2-6.5 1.1-9.4-0.5-0.8-4.8-9.9-4.8-9.9 0 0-0.6 5.7-2.5 4.6-38.4-22.8-90.7-18.8-124 11.8-34.4 31.6-13.8 112.9-13.8 112.9 0 0 9.5 3.6 10.2 4 3.3 1.9 7.9 1.5 10.9-1.2z"/>
	<path id="Layer" class="s32" d="m195 261.2c3.1-2.8 3.3-7.3 0.6-10.5-17-20.3-15.4-49.2 5.1-68.1 20.5-18.8 52.9-21 76.3-6.5 3.7 2.3 8.7 2 11.8-0.9l17.4-15.9c3.7-3.4 3.3-9-0.9-11.9-40.5-27.8-98.8-24.7-135.2 8.7-36.5 33.5-38.3 85.4-5.9 120.6 3.4 3.7 9.7 3.9 13.4 0.5z"/>
	<path id="Layer" class="s33" d="m197.9 181.3c-20.5 18.9-22.1 47.8-5.1 68.2 2.7 3.2 2.5 7.6-0.7 10.5l-17.3 15.9c-2.4 2.2-6 2.9-9.1 2.2 3.6 2.3 8.7 2.1 11.9-0.9l17.4-16c3.1-2.8 3.3-7.3 0.6-10.5-17-20.3-15.4-49.2 5.1-68.1 18-16.5 45.2-20.2 67.4-11.1-22.7-10.7-51.5-7.4-70.2 9.8zm107.4-33.9c-5.6-3.9-11.5-7.1-17.7-9.8 5.1 2.4 10.1 5.2 14.9 8.5 4.2 2.9 4.5 8.5 0.8 11.9l-17.3 15.9c-2.5 2.3-6 2.9-9.2 2q0.1 0.1 0.2 0.2c3.7 2.3 8.7 2 11.8-0.9l17.4-15.9c3.7-3.4 3.3-9-0.9-11.9z"/>
	<path id="Layer" class="s34" d="m198.3 182.6c-20.5 18.9-22 47.8-5.1 68.1 2.8 3.2 2.5 7.7-0.6 10.5l-17.4 16c-2.4 2.2-5.9 2.9-9 2.1 3.5 2.4 8.7 2.1 11.9-0.8l17.4-16c3.1-2.8 3.3-7.3 0.6-10.5-17-20.4-15.4-49.3 5.1-68.1 18-16.5 45.2-20.3 67.4-11.1-22.7-10.8-51.5-7.4-70.3 9.8zm107.5-34c-5.6-3.8-11.6-7.1-17.8-9.7 5.2 2.4 10.2 5.2 15 8.5 4.2 2.9 4.6 8.5 0.8 11.9l-17.4 15.9c-2.4 2.2-5.9 2.9-9.2 2q0.2 0.1 0.3 0.1c3.7 2.3 8.7 2 11.8-0.9l17.4-15.9c3.7-3.4 3.3-9-0.9-11.9z"/>
	<path id="Layer" class="s35" d="m207.5 190.4c-19.7 18.1-21.3 45.9-5 65.5 2.6 3 2.5 7.2-0.6 10l-16.6 15.3c-2.4 2.2-5.7 2.8-8.7 2 3.4 2.4 8.3 2.1 11.4-0.7l16.7-15.3c2.9-2.8 3.1-7.1 0.6-10.2-16.3-19.5-14.9-47.3 4.8-65.4 17.4-15.8 43.5-19.4 64.8-10.6-21.7-10.4-49.4-7.1-67.4 9.4zm103.2-32.6c-5.5-3.7-11.2-6.8-17.2-9.4 5.1 2.3 9.8 5 14.4 8.2 4.1 2.7 4.4 8.1 0.8 11.3l-16.6 15.4c-2.4 2.1-5.8 2.8-8.9 1.9q0.1 0.1 0.3 0.2c3.5 2.1 8.3 1.9 11.3-0.9l16.7-15.3c3.5-3.3 3.2-8.6-0.8-11.4z"/>
	<g id="Layer" style="opacity: .4">
		<path id="Layer" class="s23" d="m413 320.8h136.4v143.5h-136.4z"/>
	</g>
	<path id="Layer" class="s36" d="m455.6 375.4c-2.2 1.2-3 3.6-2.1 5.8 6.3 13.6 0.7 29.6-13.8 37.6-14.6 7.9-33.2 5-44-6.1-1.7-1.8-4.5-2.3-6.7-1.1l-12.3 6.8c-2.1 1.1-3 3.4-2.3 5.4 0.2 0.5 1.2 6.4 1.2 6.4 0 0 1.3-3.2 2.2-2.3 18.7 18.5 50.1 23.1 74.8 9.7 25.6-13.9 27.2-64.4 27.2-64.4 0 0-4.9-3.4-5.3-3.7-1.6-1.6-4.4-2-6.6-0.8z"/>
	<g id="Layer" style="opacity: .3">
		<path id="Layer" class="s37" d="m460.6 379.8c-2.3 1.3-3.2 3.8-2.2 6.1 6.6 14.2 0.7 31-14.5 39.3-15.2 8.2-34.7 5.3-45.9-6.4-1.7-1.9-4.7-2.3-7.1-1.1l-12.9 7.1c-2.7 1.5-3.4 4.8-1.4 7.1 19.1 21.6 53.8 27.7 80.8 13 27.1-14.8 36.9-45 23.9-70.1-1.4-2.6-5-3.5-7.8-2z"/>
	</g>
	<path id="Layer" class="s38" d="m445.3 426.3c15.3-8.3 21.1-25.1 14.6-39.3-1.1-2.2-0.2-4.8 2.1-6.1l12.9-7c1.8-1 4-0.9 5.7 0-1.7-1.9-4.7-2.4-7.1-1.1l-12.9 7c-2.3 1.3-3.2 3.8-2.2 6.1 6.6 14.2 0.7 31-14.5 39.3-13.3 7.3-29.9 5.8-41.4-2.5 11.5 9.3 28.9 11.2 42.8 3.6zm-68.7 5.6c2.6 3 5.6 5.7 8.7 8-2.6-2.1-5.1-4.4-7.3-6.9-2-2.3-1.2-5.6 1.5-7.1l12.9-7c1.8-1 4-1 5.8 0q-0.1 0-0.2-0.1c-1.7-1.9-4.7-2.3-7.1-1.1l-12.9 7.1c-2.7 1.5-3.4 4.8-1.4 7.1z"/>
	<path id="Layer" class="s39" d="m445.3 425.5c15.2-8.3 21.1-25 14.5-39.3-1-2.2-0.1-4.8 2.1-6l13-7.1c1.7-1 3.9-0.9 5.6 0-1.7-1.9-4.7-2.4-7.1-1.1l-12.9 7c-2.3 1.3-3.2 3.9-2.2 6.1 6.6 14.2 0.8 31-14.4 39.3-13.4 7.3-30 5.8-41.5-2.5 11.5 9.3 29 11.2 42.9 3.6zm-68.8 5.5c2.6 3 5.6 5.7 8.8 8.2-2.6-2.1-5.1-4.5-7.3-7-2-2.3-1.3-5.7 1.4-7.1l13-7c1.7-1 3.9-1 5.7 0q-0.1 0-0.1-0.1c-1.8-1.8-4.8-2.3-7.1-1.1l-12.9 7.1c-2.8 1.4-3.5 4.8-1.5 7z"/>
	<path id="Layer" class="s40" d="m441.3 419.7c14.6-7.9 20.2-24 13.9-37.7-1-2.2-0.1-4.7 2.1-5.9l12.4-6.7c1.7-0.9 3.8-0.9 5.4 0-1.6-1.8-4.5-2.3-6.8-1.1l-12.4 6.7c-2.2 1.3-3 3.8-2.1 5.9 6.3 13.6 0.7 29.7-13.9 37.8-12.9 6.9-28.8 5.5-39.8-2.5 11 9 27.8 10.8 41.2 3.5zm-66.1 5.3c2.5 2.9 5.4 5.5 8.4 7.8-2.5-2-4.8-4.2-7-6.7-1.9-2.2-1.2-5.3 1.4-6.8l12.4-6.8c1.7-0.9 3.9-0.8 5.6 0.1q-0.1-0.1-0.2-0.1c-1.7-1.8-4.6-2.3-6.8-1l-12.4 6.7c-2.6 1.4-3.3 4.7-1.4 6.8z"/>
	<path id="Layer" class="s41" d="m97.2 312.8l10.8 46.9c0 1.3 1.1 2.3 2.5 2.3l57.9 9.9c0 0 7.5-10.2 7.9-10.7 0.9-0.9 0.9-2.3-0.3-3.1l-63.7-52.2c-0.8-0.6-1.9-0.7-2.7-0.4-0.9 0.3-12.4 7.2-12.4 7.2z"/>
	<path id="Layer" class="s27" d="m95.5 314.9v55.7c0 1.3 1.2 2.4 2.7 2.4h68.2c2.4 0 3.7-2.7 1.8-4.2l-68.2-55.7c-1.7-1.4-4.5-0.3-4.5 1.8z"/>
	<path id="Layer" class="s42" d="m168.2 368.8l-68.2-55.7c-1.1-0.9-2.7-0.7-3.7 0 0.9-0.4 2.1-0.2 3 0.4l68.1 55.8c1.3 1 1.1 2.6 0.1 3.5 1.7-0.7 2.2-2.8 0.7-4z"/>
	<path id="Layer" class="s43" d="m168.6 368.5l-68.2-55.8c-1.1-0.9-2.7-0.7-3.7 0.1 0.9-0.4 2.1-0.3 3 0.4l68.1 55.7c1.2 1.1 1.1 2.7 0.1 3.6 1.6-0.7 2.2-2.8 0.7-4z"/>
	<path id="Layer" class="s44" d="m176.3 357.8l-64.5-51.9c-1.1-0.8-2.7-0.7-3.6 0 0.9-0.3 2-0.2 2.8 0.5l64.6 51.9c1.3 0.9 1 2.4 0.1 3.3 1.5-0.6 2.1-2.6 0.6-3.8z"/>
	<path id="Layer" class="s45" d="m355.5 45.8l-52.1-12.1c-1.3-0.6-2.8-0.1-3.4 1l-35.5 41.9c0 0 7 10.5 7.3 11.1 0.6 1 1.9 1.6 3.3 1.1l80.6-28c1-0.3 1.6-1.1 1.7-1.9 0-0.9-1.9-13.1-1.9-13.1z"/>
	<path id="Layer" class="s27" d="m354.1 43.4l-56.1-24.5c-1.4-0.6-3-0.1-3.7 1.1l-30 54.5c-1.1 2 1.1 4.2 3.5 3.3l86.1-29.9c2.2-0.8 2.4-3.5 0.2-4.5z"/>
	<path id="Layer" class="s46" d="m267.8 77.8l86.1-29.9c1.5-0.5 2-1.9 1.6-3-0.1 0.9-0.6 1.8-1.7 2.2l-86.2 29.9c-1.6 0.5-3.1-0.3-3.6-1.5-0.1 1.6 1.8 3 3.8 2.3z"/>
	<path id="Layer" class="s47" d="m267.9 78.3l86.1-30c1.5-0.5 2.1-1.8 1.7-2.9 0 0.9-0.6 1.7-1.7 2.1l-86.2 30c-1.6 0.5-3.2-0.4-3.6-1.6-0.1 1.6 1.8 3 3.7 2.4z"/>
	<path id="Layer" class="s48" d="m275.2 89.2l80.8-28.8c1.4-0.5 1.9-1.8 1.5-2.8 0 0.8-0.6 1.7-1.6 2l-80.8 28.8c-1.5 0.5-3-0.3-3.4-1.5-0.1 1.6 1.7 2.9 3.5 2.3z"/>
	<g id="Layer" style="opacity: .5">
		<path id="Layer" class="s23" d="m241.2 17.4h208.3v285.7h-208.3z"/>
	</g>
	<g id="Layer" style="opacity: .6">
		<path id="Layer" class="s23" d="m369.5 36.3h223.1v171.6h-223.1z"/>
	</g>
	<g id="Layer" style="opacity: .5">
		<path id="Layer" class="s23" d="m319.5 234.1h248v193h-248z"/>
	</g>
	<path id="Layer" fill-rule="evenodd" class="s49" d="m537.1 21.6c2 1 3 2.9 2.7 4.8l-41.3 331.6c-0.2 1.9-1.6 3.4-3.5 4.2q-1 0.4-2.1 0.3c-1.3 0-2.5-0.3-3.6-1.1l-235.1-171.8c-1.4-1.1-2.1-2.6-2.1-4.2 0.1-1.6 1.1-3.1 2.6-4l276.4-159.8c1-0.5 2.1-0.8 3.1-0.8 1 0 2.1 0.2 2.9 0.8zm-279.3 164l235.1 171.9 41.3-331.7z"/>
	<g id="Layer" style="opacity: .4">
		<path id="Layer" class="s23" d="m264.3 188.7h217.5v240h-217.5z"/>
	</g>
	<path id="Layer" class="s50" d="m386.4 215.1l-10.7-15.6-5.2 7.2 0.4 2.1h-12.8c-3.5 0-6.4 2.6-6.4 5.7v87.2c0 8.6-7.8 15.5-17.4 15.5h-98c-3.4 0-6.3 2.5-6.3 5.7v4.6c-5-0.1-9.2-0.3-9.2-0.3l11.2 15.8q0.6 1 1.4 2h0.1c3.1 3.8 8.2 6.3 13.9 6.3h125.2c9.6 0 17.4-6.9 17.4-15.5v-111.5c0-3.5-1.3-6.7-3.6-9.2z"/>
	<path id="Layer" class="s11" d="m361 192.3h-14.5c-3.5 0-6.4 2.6-6.4 5.7v87.2c0 8.6-7.7 15.5-17.3 15.5h-98c-3.6 0-6.4 2.5-6.4 5.7v12.9c0 8.5 7.8 15.5 17.3 15.5h125.3c9.6 0 17.4-7 17.4-15.5v-111.5c0-8.5-7.8-15.5-17.4-15.5z"/>
	<path id="Layer" class="s51" d="m374.5 198c1.5 2.3 2.3 5 2.3 7.7v111.5c0 8.6-7.8 15.5-17.4 15.5h-125.2c-5.5 0-10.3-2.2-13.5-5.7 3 4.6 8.6 7.8 15 7.8h125.3c9.6 0 17.4-7 17.4-15.5v-111.5c0-3.7-1.5-7.1-3.9-9.8z"/>
	<path id="Layer" class="s52" d="m375.7 199.4c1.4 2.2 2.3 4.8 2.3 7.6v111.5c0 8.6-7.8 15.5-17.4 15.5h-125.1c-5.5 0-10.4-2.3-13.6-5.7 3.1 4.6 8.7 7.8 15.1 7.8h125.2c9.6 0 17.4-7 17.4-15.5v-111.5c0-3.7-1.5-7.1-3.9-9.7z"/>
	<path id="Layer" class="s53" d="m386.2 214.5c1.5 2.2 2.4 4.9 2.4 7.6v111.5c0 8.6-7.8 15.5-17.4 15.5h-125.2c-5.5 0-10.3-2.2-13.5-5.7 3 4.6 8.6 7.8 15.1 7.8h125.2c9.6 0 17.3-7 17.3-15.5v-111.4c0-3.8-1.4-7.2-3.9-9.8z"/>
	<path id="Layer" class="s54" d="m397.5 96l-0.8-5-2.2 1.3-0.2 0.6-3.2-1.3c-0.9-0.4-1.9 0-2.4 0.8l-11.1 22.1c-1.1 2.1-4 3.1-6.4 2.1l-24.8-9.9c-0.9-0.4-1.9 0-2.3 0.8l-0.7 1.2c-1.2-0.6-2.3-1.1-2.3-1.1l0.9 5.2q0 0.4 0.1 0.6v0.1c0.3 1.2 1.2 2.3 2.7 2.9l31.8 12.7c2.4 1 5.3 0 6.3-2.2l14.2-28.1c0.6-1 0.6-1.9 0.4-2.8z"/>
	<path id="Layer" class="s32" d="m393.9 87.7l-3.6-1.5c-0.9-0.3-2 0-2.4 0.8l-11.1 22.1c-1.1 2.1-4 3.1-6.4 2.1l-24.8-9.9c-0.9-0.3-2 0-2.4 0.8l-1.6 3.3c-1.1 2.2 0 4.7 2.4 5.7l31.7 12.7c2.5 1 5.3 0 6.4-2.2l14.2-28.2c1.1-2.2 0-4.8-2.4-5.7z"/>
	<path id="Layer" class="s55" d="m396.6 90.5c0.1 0.7 0 1.5-0.4 2.2l-14.3 28.3c-1.1 2.1-3.9 3.1-6.3 2.1l-31.7-12.7c-1.4-0.5-2.3-1.6-2.7-2.8 0.2 1.5 1.2 2.9 2.8 3.5l31.7 12.7c2.5 1 5.3 0 6.4-2.2l14.2-28.2c0.6-0.9 0.6-2 0.3-2.9z"/>
	<path id="Layer" class="s56" d="m396.8 90.9c0.1 0.8-0.1 1.6-0.5 2.3l-14.2 28.2c-1.1 2.1-3.9 3.1-6.4 2.1l-31.7-12.6c-1.4-0.6-2.4-1.6-2.6-2.9 0.1 1.5 1.1 2.9 2.8 3.5l31.7 12.8c2.4 0.9 5.2 0 6.3-2.2l14.3-28.3c0.5-0.9 0.5-1.9 0.3-2.9z"/>
	<path id="Layer" class="s57" d="m397.5 95.9q0.1 1.1-0.4 2.1l-14.3 28.3c-1.1 2.2-3.9 3.1-6.3 2.2l-31.8-12.7c-1.4-0.6-2.3-1.7-2.6-2.8 0.1 1.4 1.2 2.8 2.8 3.4l31.7 12.7c2.5 1 5.3 0 6.4-2.2l14.2-28.1c0.5-1 0.6-2 0.3-2.9z"/>
	<g id="Layer" style="opacity: .5">
		<path id="Layer" class="s23" d="m91.7 78.6h182.1v161.8h-182.1z"/>
	</g>
	<g id="Layer" style="opacity: .3">
		<path id="Layer" class="s23" d="m399.2 82.1h141v123.3h-141z"/>
	</g>
	<path id="Layer" class="s58" d="m196.9 167.4c-15.8 14.4-41.7 14.7-58 0.7-16.2-14-16.7-37.1-0.9-51.6 15.8-14.5 41.8-14.8 58-0.8 16.3 14.1 16.6 37.2 0.9 51.7z"/>
	<path id="Layer" class="s59" d="m283.2 387.6c0 38.7-35.2 70-78.7 70-43.4 0-78.7-31.3-78.7-70 0-38.7 35.3-70.1 78.7-70.1 43.5 0 78.7 31.4 78.7 70.1z"/>
	<g id="Layer" style="opacity: .4">
		<path id="Layer" class="s23" d="m427.9 232.5h172.9v171.6h-172.9z"/>
	</g>
	<path id="Layer" class="s60" d="m557 266.1c0 26.6-24.2 48.2-54.2 48.2-29.9 0-54.1-21.6-54.1-48.2 0-26.7 24.2-48.2 54.1-48.2 30 0 54.2 21.5 54.2 48.2z"/>
	<path id="Layer" class="s61" d="m512 108.9c0 9.8-8.9 17.8-19.9 17.8-11 0-20-8-20-17.8 0-9.7 9-17.7 20-17.7 11 0 19.9 8 19.9 17.7z"/>
	<path id="Layer" class="s62" d="m42.5 254.6c0 9.8-8.9 17.7-19.9 17.7-11 0-19.9-7.9-19.9-17.7 0-9.8 8.9-17.7 19.9-17.7 11 0 19.9 7.9 19.9 17.7z"/>
	<g id="Layer" style="opacity: .2">
		<path id="Layer" d="m74 289.3h157v131.5h-157z"/>
	</g>
	<g id="Layer" style="opacity: .3">
		<path id="Layer" class="s23" d="m167.9 297.2h159.8v142.2h-159.8z"/>
	</g>
	<path id="Layer" class="s63" d="m285.6 360.5c-10.1 9.3-26.8 9.5-37.2 0.5-10.4-9-10.7-23.9-0.6-33.1 10.2-9.4 26.8-9.6 37.3-0.6 10.4 9 10.7 24 0.5 33.2z"/>
	<g id="Layer" style="opacity: .3">
		<path id="Layer" class="s23" d="m238.4-16h143.8v127.7h-143.8z"/>
	</g>
	<path id="Layer" class="s64" d="m336.8 42.5c-7.2 6.5-18.8 6.6-26.2 0.3-7.3-6.4-7.5-16.8-0.4-23.3 7.1-6.5 18.8-6.7 26.1-0.4 7.4 6.4 7.6 16.8 0.5 23.4z"/>
</svg>