<svg width="44" height="60" viewBox="0 0 44 60" fill="none" xmlns="http://www.w3.org/2000/svg">
<path fill-rule="evenodd" clip-rule="evenodd" d="M19.9678 55.7778C19.9678 57.55 19.3581 59 18.6129 59H9.8065C9.06134 59 8.45166 57.55 8.45166 55.7778V47.7222C8.45166 45.95 9.06134 44.5 9.8065 44.5H18.6129C19.3581 44.5 19.9678 45.95 19.9678 47.7222V55.7778Z" stroke="white"/>
<path fill-rule="evenodd" clip-rule="evenodd" d="M31.4839 55.7778C31.4839 57.55 30.8742 59 30.1291 59H21.3226C20.5775 59 19.9678 57.55 19.9678 55.7778V47.7222C19.9678 45.95 20.5775 44.5 21.3226 44.5H30.1291C30.8742 44.5 31.4839 45.95 31.4839 47.7222V55.7778Z" stroke="white"/>
<path fill-rule="evenodd" clip-rule="evenodd" d="M43 55.7778C43 57.55 42.3903 59 41.6452 59H32.8387C32.0936 59 31.4839 57.55 31.4839 55.7778V47.7222C31.4839 45.95 32.0936 44.5 32.8387 44.5H41.6452C42.3903 44.5 43 45.95 43 47.7222V55.7778Z" stroke="white"/>
<path fill-rule="evenodd" clip-rule="evenodd" d="M8.4516 55.7778C8.4516 57.55 7.84193 59 7.09677 59H2.35484C1.60968 59 1 57.55 1 55.7778V47.7222C1 45.95 1.60968 44.5 2.35484 44.5H7.09677C7.84193 44.5 8.4516 45.95 8.4516 47.7222V55.7778Z" stroke="white"/>
<path fill-rule="evenodd" clip-rule="evenodd" d="M19.9678 26.7778C19.9678 28.55 19.3581 30 18.6129 30H9.8065C9.06134 30 8.45166 28.55 8.45166 26.7778V18.7222C8.45166 16.95 9.06134 15.5 9.8065 15.5H18.6129C19.3581 15.5 19.9678 16.95 19.9678 18.7222V26.7778Z" stroke="white"/>
<path fill-rule="evenodd" clip-rule="evenodd" d="M31.4839 26.7778C31.4839 28.55 30.8742 30 30.1291 30H21.3226C20.5775 30 19.9678 28.55 19.9678 26.7778V18.7222C19.9678 16.95 20.5775 15.5 21.3226 15.5H30.1291C30.8742 15.5 31.4839 16.95 31.4839 18.7222V26.7778Z" stroke="white"/>
<path fill-rule="evenodd" clip-rule="evenodd" d="M43 26.7778C43 28.55 42.3903 30 41.6452 30H32.8387C32.0936 30 31.4839 28.55 31.4839 26.7778V18.7222C31.4839 16.95 32.0936 15.5 32.8387 15.5H41.6452C42.3903 15.5 43 16.95 43 18.7222V26.7778Z" stroke="white"/>
<path fill-rule="evenodd" clip-rule="evenodd" d="M8.4516 26.7778C8.4516 28.55 7.84193 30 7.09677 30H2.35484C1.60968 30 1 28.55 1 26.7778V18.7222C1 16.95 1.60968 15.5 2.35484 15.5H7.09677C7.84193 15.5 8.4516 16.95 8.4516 18.7222V26.7778Z" stroke="white"/>
<path fill-rule="evenodd" clip-rule="evenodd" d="M12.5161 12.2778C12.5161 14.05 11.9064 15.5 11.1613 15.5H2.35484C1.60968 15.5 1 14.05 1 12.2778V4.22222C1 2.45 1.60968 1 2.35484 1H11.1613C11.9064 1 12.5161 2.45 12.5161 4.22222V12.2778Z" stroke="white"/>
<path fill-rule="evenodd" clip-rule="evenodd" d="M24.0322 12.2778C24.0322 14.05 23.4226 15.5 22.6774 15.5H13.871C13.1258 15.5 12.5161 14.05 12.5161 12.2778V4.22222C12.5161 2.45 13.1258 1 13.871 1H22.6774C23.4226 1 24.0322 2.45 24.0322 4.22222V12.2778Z" stroke="white"/>
<path fill-rule="evenodd" clip-rule="evenodd" d="M35.5483 12.2778C35.5483 14.05 34.9387 15.5 34.1935 15.5H25.3871C24.6419 15.5 24.0322 14.05 24.0322 12.2778V4.22222C24.0322 2.45 24.6419 1 25.3871 1H34.1935C34.9387 1 35.5483 2.45 35.5483 4.22222V12.2778Z" stroke="white"/>
<path fill-rule="evenodd" clip-rule="evenodd" d="M12.5161 41.2778C12.5161 43.05 11.9064 44.5 11.1613 44.5H2.35484C1.60968 44.5 1 43.05 1 41.2778V33.2222C1 31.45 1.60968 30 2.35484 30H11.1613C11.9064 30 12.5161 31.45 12.5161 33.2222V41.2778Z" stroke="white"/>
<path fill-rule="evenodd" clip-rule="evenodd" d="M24.0322 41.2778C24.0322 43.05 23.4226 44.5 22.6774 44.5H13.871C13.1258 44.5 12.5161 43.05 12.5161 41.2778V33.2222C12.5161 31.45 13.1258 30 13.871 30H22.6774C23.4226 30 24.0322 31.45 24.0322 33.2222V41.2778Z" stroke="white"/>
<path fill-rule="evenodd" clip-rule="evenodd" d="M35.5483 41.2778C35.5483 43.05 34.9387 44.5 34.1935 44.5H25.3871C24.6419 44.5 24.0322 43.05 24.0322 41.2778V33.2222C24.0322 31.45 24.6419 30 25.3871 30H34.1935C34.9387 30 35.5483 31.45 35.5483 33.2222V41.2778Z" stroke="white"/>
<path fill-rule="evenodd" clip-rule="evenodd" d="M42.9999 41.2778C42.9999 43.05 42.3903 44.5 41.6451 44.5H36.9032C36.158 44.5 35.5483 43.05 35.5483 41.2778V33.2222C35.5483 31.45 36.158 30 36.9032 30H41.6451C42.3903 30 42.9999 31.45 42.9999 33.2222V41.2778Z" stroke="white"/>
</svg>
