<svg xmlns="http://www.w3.org/2000/svg" data-name="Layer 1" viewBox="0 0 512 512" id="tired-face"><circle cx="256" cy="256" r="219.5" fill="#fdd402"></circle><path fill="#74563a" d="M386,391.80005a294.70045,294.70045,0,0,0-64.81006-23h-.01A292.19168,292.19168,0,0,0,257.52,361.45h-1.5a293.0633,293.0633,0,0,0-65.18994,7.3501h-.02a295.03,295.03,0,0,0-64.81006,23A126.34422,126.34422,0,0,1,252.46,265.34H259.54A126.05433,126.05433,0,0,1,348.96,302.38c.7.7,1.39014,1.4,2.07007,2.12A125.95849,125.95849,0,0,1,386,391.80005Z"></path><path fill="#fff" d="M351.03,304.5H160.97a126.03074,126.03074,0,0,1,91.49-39.16H259.54A126.05433,126.05433,0,0,1,348.96,302.38C349.65991,303.08,350.3501,303.78,351.03,304.5Z"></path><path fill="#e5303e" d="M321.18994,368.80005h-.01A292.19168,292.19168,0,0,0,257.52,361.45h-1.5a293.0633,293.0633,0,0,0-65.18994,7.3501h-.02c3.2-19.25,31.16992-34.3,65.18994-34.3S317.99,349.55005,321.18994,368.80005Z"></path><path fill="#2c2b2d" d="M416.51367,95.48682A227.00044,227.00044,0,0,0,95.48633,416.51367,227.00044,227.00044,0,0,0,416.51367,95.48682ZM256,468C139.10254,468,44,372.89746,44,256,44,139.103,139.10254,44,256,44s212,95.103,212,212C468,372.89746,372.89746,468,256,468Zm98.2666-170.92578A133.63727,133.63727,0,0,0,259.541,257.83984h-7.082A133.87854,133.87854,0,0,0,123.25781,356.2832,134.55928,134.55928,0,0,0,118.5,391.7998a7.501,7.501,0,0,0,10.82031,6.72559,287.93776,287.93776,0,0,1,126.7002-29.57617h1.458a287.95509,287.95509,0,0,1,125.20214,29.57617A7.50031,7.50031,0,0,0,393.5,391.7998a133.54193,133.54193,0,0,0-39.2334-94.72558Zm-149.6914-14.207A118.02866,118.02866,0,0,1,252.459,272.83984h7.082A118.497,118.497,0,0,1,331.417,297H180.51782A120.02626,120.02626,0,0,1,204.5752,282.86719Zm52.94238,71.082h-1.49707a300.22314,300.22314,0,0,0-50.85474,4.38916C214.59717,349.29541,232.76489,342,256,342c23.23486,0,41.40259,7.29517,50.834,16.33789A300.20925,300.20925,0,0,0,257.51758,353.94922Zm69.78271,8.62451c-3.34375-9.70264-11.55175-18.368-23.6372-24.77C290.51172,330.83691,273.584,327,256,327s-34.51172,3.83691-47.66309,10.80371c-12.08691,6.40271-20.29516,15.06934-23.63842,24.77332a302.43478,302.43478,0,0,0-50.592,17.15637A118.76164,118.76164,0,0,1,164.13281,312H347.74609a118.21986,118.21986,0,0,1,30.14746,67.73535A302.79807,302.79807,0,0,0,327.30029,362.57373Zm53.54639-172.46387a7.49985,7.49985,0,0,0-10.23242-2.79052l-46.66992,26.66894a7.49948,7.49948,0,0,0,0,13.02344l46.66992,26.66894a7.49974,7.49974,0,1,0,7.4414-13.02343L342.78125,220.5l35.27441-20.15723A7.50015,7.50015,0,0,0,380.84668,190.10986ZM131.15332,250.89014a7.49532,7.49532,0,0,0,10.23242,2.79052l46.66992-26.66894a7.49948,7.49948,0,0,0,0-13.02344l-46.66992-26.66894a7.49974,7.49974,0,1,0-7.4414,13.02343L169.21875,220.5l-35.27441,20.15723A7.50015,7.50015,0,0,0,131.15332,250.89014ZM121.126,163.5542a72.45648,72.45648,0,0,0,29.54687,6.39893,60.352,60.352,0,0,0,29.76563-7.61915A62.85588,62.85588,0,0,0,204.77832,137.5a7.50023,7.50023,0,0,0-13.15625-7.20605,48.08362,48.08362,0,0,1-18.501,18.9458c-21.207,11.85546-43.06445,1.9663-45.4873.7998A7.5,7.5,0,1,0,121.126,163.5542Zm206.43457-1.2207a60.3485,60.3485,0,0,0,29.7666,7.61963A72.46655,72.46655,0,0,0,386.874,163.5542a7.5,7.5,0,1,0-6.50781-13.51465c-2.4209,1.166-24.2793,11.05371-45.48828-.80029a48.08313,48.08313,0,0,1-18.5-18.94531A7.50023,7.50023,0,0,0,303.22168,137.5,62.85557,62.85557,0,0,0,327.56055,162.3335Z"></path></svg>