<svg width="42" height="68" viewBox="0 0 42 68" fill="none" xmlns="http://www.w3.org/2000/svg">
<path d="M41.7572 42.6132C41.5912 41.9774 41.3388 41.4079 41.0267 40.8969C40.4792 37.8068 39.3958 34.2628 37.8208 30.748C35.299 25.1108 28.6225 16.0277 26.0855 14.6274C25.9593 14.5557 25.8454 14.5159 25.7392 14.48C25.6528 13.6053 25.2989 12.793 24.4602 12.2355C23.1519 11.3767 21.8615 10.5378 20.65 9.95245C19.1946 4.16654 15.2581 0 10.631 0C4.76852 0 0 6.66726 0 14.8689C0 23.0693 4.76852 29.7405 10.631 29.7405C15.4555 29.7405 19.5342 25.2143 20.8274 19.0381C21.7923 18.8311 22.6244 18.9014 23.093 19.8784C24.3967 22.5914 25.834 31.6214 28.2211 37.3927C27.6177 37.2772 26.9953 37.2135 26.354 37.2135C23.5987 37.2135 21.1225 38.3418 19.3739 40.1496C17.8767 36.8817 15.2638 34.7101 12.2828 34.7101C8.33494 34.7101 5.03417 38.513 4.12051 43.6419L3.75808 43.6458L3.96681 68L8.27137 67.8965L9.83305 64.0259C12.5465 62.5685 15.7553 58.8068 17.9839 54.8035C21.0048 55.4234 24.8189 55.7765 26.354 55.7765C28.0162 55.7765 34.3037 54.7517 36.0997 53.8292C40.2857 51.6909 42.8218 46.6669 41.7572 42.6132ZM10.631 19.228C8.91274 19.228 7.51615 17.2728 7.51615 14.8689C7.51615 12.4664 8.91274 10.5139 10.631 10.5139C12.3482 10.5139 13.7448 12.4678 13.7448 14.8689C13.7448 17.2741 12.3473 19.228 10.631 19.228Z" fill="white"/>
</svg>
