<svg width="43" height="69" viewBox="0 0 43 69" fill="none" xmlns="http://www.w3.org/2000/svg">
<path d="M23.0185 14.272H21.302C21.2706 14.8477 21.1567 15.3063 20.9624 15.6478C20.7671 15.988 20.4973 16.2696 20.1612 16.4898C19.8844 16.6682 19.4832 16.8007 18.9529 16.8955C18.4215 16.9875 17.9179 17.0362 17.4551 17.0362V18.8415H20.8892V32.0997H17.4551V34.1181H26.3886V32.0997H23.0196L23.0185 14.272Z" fill="white"/>
<path d="M34.4475 42.7022C35.0522 42.3147 35.6232 41.8142 36.1326 41.2023C38.2002 38.7252 38.7422 35.1147 37.7723 32.0368C40.2737 30.6832 42.0181 27.6722 42.0181 24.1664C42.0181 20.6619 40.2737 17.6523 37.7723 16.2959C38.7422 13.218 38.2002 9.61176 36.1326 7.13186C34.0661 4.65336 31.0541 4.00376 28.4875 5.16774C27.3583 2.16788 24.8464 0.0769043 21.9217 0.0769043C18.9981 0.0769043 16.4862 2.16788 15.3558 5.16774C12.7881 4.00516 9.77848 4.65475 7.71081 7.13326C5.64198 9.61316 5.10006 13.2208 6.0711 16.2973C3.56966 17.6523 1.82411 20.6633 1.82411 24.1678C1.82411 27.6736 3.56849 30.6846 6.0711 32.0382C5.10122 35.1161 5.64314 38.7279 7.71081 41.2037C8.22133 41.8142 8.79116 42.3161 9.39705 42.705L0.922852 61.6186L8.34577 59.7186L10.9623 68.0769L19.9889 47.9268C20.6053 48.1318 21.2507 48.2558 21.9229 48.2558C22.595 48.2558 23.2393 48.1318 23.8556 47.9268L32.8834 68.0769L35.4999 59.7186L42.9229 61.6186L34.4475 42.7022ZM21.9333 41.9257C13.7045 41.9257 7.03283 33.9284 7.03283 24.0646C7.03283 14.2008 13.7033 6.20486 21.9333 6.20486C30.161 6.20486 36.8338 14.2008 36.8338 24.0646C36.8338 33.9298 30.1621 41.9257 21.9333 41.9257Z" fill="white"/>
</svg>
