<svg width="562" height="682" viewBox="0 0 562 682" fill="none" xmlns="http://www.w3.org/2000/svg">
<path d="M178.491 619.051C293.589 665.427 424.816 566.06 491.975 460.896C536.598 390.991 561.157 304.24 548.512 228.129C539.239 172.41 506.474 114.371 449.263 102.436C385.532 89.0692 325.229 156.451 259.644 143.834C194.115 131.217 112.569 150.79 68.1144 203.782C23.6602 256.705 3.59678 363.574 26.0206 452.916C38.778 503.862 66.4284 550.306 105.6 582.292C127.124 599.819 151.628 607.935 177.086 618.506C177.536 618.688 178.004 618.87 178.491 619.051Z" fill="#92E3A9"/>
<path opacity="0.8" d="M178.491 619.051C293.589 665.427 424.816 566.06 491.975 460.896C536.598 390.991 561.157 304.24 548.512 228.129C539.239 172.41 506.474 114.371 449.263 102.436C385.532 89.0692 325.229 156.451 259.644 143.834C194.115 131.217 112.569 150.79 68.1144 203.782C23.6602 256.705 3.59678 363.574 26.0206 452.916C38.778 503.862 66.4284 550.306 105.6 582.292C127.124 599.819 151.628 607.935 177.086 618.506C177.536 618.688 178.004 618.87 178.491 619.051Z" fill="white"/>
<path d="M98.7996 161.361C98.7996 142.743 87.6158 124.533 73.8468 124.533C60.0216 124.533 48.894 142.743 48.894 161.361C48.894 174.797 54.6826 184.754 63.1126 189.255C63.1126 189.255 70.1938 192.87 69.5194 204.054C69.0136 212.375 68.2268 220.763 67.8334 224.583C67.721 225.674 68.4516 226.697 69.3508 226.697H73.2286H74.0154H77.8932C78.7924 226.697 79.523 225.674 79.4106 224.583C79.0172 220.763 78.2304 212.375 77.7246 204.054C77.2188 195.666 81.0404 191.574 83.0074 190.005C92.2804 185.913 98.7996 175.547 98.7996 161.361Z" fill="#91E2A8" stroke="#263238" stroke-width="2"/>
<path d="M60.3589 187.55C61.2581 188.187 62.176 188.755 63.1127 189.255C63.1127 189.255 70.1939 192.87 69.5195 204.054C69.0137 212.375 68.2269 220.763 67.8335 224.583C67.7211 225.674 68.4517 226.697 69.3509 226.697H73.2287H74.0155H77.8933C78.7925 226.697 79.5231 225.674 79.4107 224.583C79.0173 220.763 78.2305 212.375 77.7247 204.054C77.2189 195.666 81.0405 191.574 83.0075 190.005C84.5061 189.323 85.9299 188.505 87.2787 187.55H60.3589Z" fill="white" stroke="#263238" stroke-width="2"/>
<path d="M59.4035 209.647C59.4035 206.032 56.9307 203.031 53.9521 203.031C50.9173 203.031 48.5007 206.032 48.5007 209.647C48.5007 213.261 50.9173 216.262 53.9521 216.262C56.9307 216.262 59.4035 213.261 59.4035 209.647Z" fill="white" stroke="#263238" stroke-width="2"/>
<path d="M252.956 67.3816C246.662 84.2952 250.652 106.46 263.241 113.348C275.774 120.237 292.184 109.256 298.478 92.3428C303.03 80.135 301.12 68.1318 294.938 59.8114H294.994C294.994 59.8114 289.767 52.9914 294.207 43.1024C297.467 35.7368 301.063 28.5076 302.693 25.234C303.143 24.2792 302.862 23.0516 302.019 22.5742L298.478 20.6646L297.748 20.2554L294.263 18.3458C293.42 17.8684 292.409 18.414 292.128 19.437C291.172 23.1198 289.093 31.1674 286.733 38.9422C284.316 46.9216 279.427 48.763 277.122 49.1722C267.287 48.2174 257.79 54.4236 252.956 67.3816Z" fill="#91E2A8" stroke="#263238" stroke-width="2"/>
<path d="M296.905 62.744C296.305 61.6983 295.649 60.7207 294.938 59.8114H294.994C294.994 59.8114 289.767 52.9914 294.207 43.1024C297.467 35.7368 301.063 28.5076 302.693 25.234C303.143 24.2792 302.862 23.0516 302.019 22.5742L298.478 20.6646L297.748 20.2554L294.263 18.3458C293.42 17.8684 292.409 18.414 292.128 19.437C291.172 23.1198 289.093 31.1674 286.732 38.9422C284.316 46.9216 279.426 48.763 277.122 49.1722C275.511 49.0358 273.919 49.0813 272.345 49.3086L296.905 62.744Z" fill="white" stroke="#263238" stroke-width="2"/>
<path d="M342.989 583.246C329.894 573.562 311.292 575.54 304.042 589.794C296.848 604.047 303.761 625.189 316.799 634.874C326.241 641.898 336.301 641.148 343.888 634.737V634.806C343.888 634.806 350.07 629.35 357.601 635.897C363.221 640.807 368.672 645.99 371.145 648.377C371.875 649.128 372.943 648.855 373.393 647.9L375.416 643.876L375.866 643.126L377.889 639.102C378.338 638.147 378.057 636.852 377.214 636.442C374.292 634.806 367.998 631.259 361.928 627.44C355.746 623.553 354.847 617.415 354.791 614.618C356.814 602.888 352.936 590.748 342.989 583.246Z" fill="#91E2A8" stroke="#263238" stroke-width="2"/>
<path d="M341.19 636.715C342.127 636.124 343.026 635.465 343.888 634.737V634.806C343.888 634.806 350.07 629.35 357.601 635.897C363.221 640.807 368.672 645.99 371.145 648.377C371.875 649.128 372.943 648.855 373.393 647.9L375.416 643.876L375.866 643.126L377.889 639.102C378.338 638.147 378.057 636.852 377.214 636.442C374.292 634.806 367.998 631.259 361.928 627.44C355.746 623.553 354.847 617.415 354.791 614.618C355.128 612.709 355.296 610.799 355.296 608.89L341.19 636.715Z" fill="white" stroke="#263238" stroke-width="2"/>
<path d="M511.364 516.82C524.852 508.022 532.776 487.494 526.257 472.762C519.738 457.963 501.248 454.621 487.704 463.487C477.981 469.83 473.485 480.742 474.216 491.927C474.216 491.927 474.946 501.134 466.46 505.771C460.222 509.181 453.759 512.25 450.836 513.614C449.937 514.023 449.6 515.319 449.993 516.274L451.848 520.434L452.185 521.253L454.04 525.413C454.489 526.368 455.557 526.709 456.288 526.027C458.873 523.844 464.549 519.002 470.394 514.501C476.239 510 481.072 512.182 483.095 513.546C490.457 521.457 501.023 523.571 511.364 516.82Z" fill="#91E2A8" stroke="#263238" stroke-width="2"/>
<path d="M474.159 488.176C474.122 489.403 474.141 490.654 474.216 491.927C474.216 491.927 474.946 501.134 466.46 505.771C460.222 509.181 453.759 512.25 450.836 513.614C449.937 514.023 449.6 515.319 449.993 516.274L451.848 520.434L452.185 521.253L454.04 525.413C454.489 526.368 455.557 526.709 456.288 526.027C458.873 523.844 464.549 519.002 470.394 514.501C476.239 510 481.072 512.182 483.095 513.546C484.294 514.819 485.568 515.933 486.917 516.888L474.159 488.176Z" fill="white" stroke="#263238" stroke-width="2"/>
<path d="M446.397 574.653C446.397 571.039 443.98 568.106 441.001 568.106C437.967 568.106 435.55 571.039 435.55 574.653C435.55 578.336 437.967 581.269 441.001 581.269C443.98 581.269 446.397 578.336 446.397 574.653Z" fill="white" stroke="#263238" stroke-width="2"/>
<path d="M534.462 246.816C534.462 243.133 532.045 240.2 529.067 240.2C526.032 240.2 523.615 243.133 523.615 246.816C523.615 250.43 526.032 253.431 529.067 253.431C532.045 253.431 534.462 250.43 534.462 246.816Z" fill="white" stroke="#263238" stroke-width="2"/>
<path d="M374.91 71.269C374.91 67.5862 372.494 64.6536 369.515 64.6536C366.48 64.6536 364.064 67.5862 364.064 71.269C364.064 74.8836 366.48 77.8162 369.515 77.8162C372.494 77.8162 374.91 74.8836 374.91 71.269Z" fill="white" stroke="#263238" stroke-width="2"/>
<path d="M133.644 78.5664C133.644 74.8836 131.227 71.951 128.192 71.951C125.214 71.951 122.741 74.8836 122.741 78.5664C122.741 82.181 125.214 85.1136 128.192 85.1136C131.227 85.1136 133.644 82.181 133.644 78.5664Z" fill="white" stroke="#263238" stroke-width="2"/>
<path d="M47.7138 556.989C47.7138 553.375 45.241 550.374 42.2624 550.374C39.2838 550.374 36.811 553.375 36.811 556.989C36.811 560.672 39.2838 563.605 42.2624 563.605C45.241 563.605 47.7138 560.672 47.7138 556.989Z" fill="white" stroke="#263238" stroke-width="2"/>
<path d="M449.544 33.5544C449.544 33.5544 455.107 21.9604 464.38 23.2562C473.653 24.552 476.576 32.5996 479.217 40.92C481.859 49.3086 477.644 56.6742 476.295 61.1754C474.946 65.6766 475.227 67.3134 477.363 67.9272C479.498 68.6092 481.072 66.9724 481.072 66.9724C481.072 66.9724 476.576 73.3832 472.867 74.679C469.157 75.9748 463.313 79.1802 460.39 73.7242C457.468 68.2682 456.4 59.6068 454.04 50.2634C451.679 40.92 448.476 35.805 448.476 35.805L449.544 33.5544Z" fill="#263238" stroke="#263238" stroke-width="2" stroke-linecap="round" stroke-linejoin="round"/>
<path d="M466.741 71.4736C466.741 71.4736 471.799 72.7694 472.867 80.135C473.935 87.5688 474.44 113.553 474.44 113.553C474.44 113.553 480.791 125.147 487.142 135.786C493.492 146.357 494.56 145.402 494.56 145.402H506.25C506.25 145.402 513.612 151.199 514.174 152.154C514.68 153.109 514.455 153.791 512.825 153.791C511.251 153.791 508.048 153.109 506.25 153.109C504.395 153.109 500.686 154.064 500.686 154.064C500.686 154.064 507.542 155.36 507.542 156.996C507.542 158.565 506.755 158.292 504.901 158.565C503.046 158.906 500.124 159.52 498.55 158.906C496.977 158.292 491.919 149.904 491.919 149.904C491.919 149.904 473.373 132.854 469.944 128.352C466.516 123.851 464.1 120.032 463.594 117.099C463.032 114.235 462.807 109.052 462.807 109.052C462.807 109.052 463.594 97.185 460.952 89.1374C458.255 81.0898 455.108 73.7242 458.03 70.1778C460.952 66.6314 466.741 71.4736 466.741 71.4736Z" fill="white" stroke="#263238" stroke-width="2" stroke-linecap="round" stroke-linejoin="round"/>
<path d="M472.867 80.135C471.799 72.7694 466.741 71.4736 466.741 71.4736C466.741 71.4736 460.952 66.6314 458.03 70.1778C455.108 73.7242 458.255 81.0898 460.952 89.1374C463.594 97.185 462.807 109.052 462.807 109.052C462.807 109.097 462.807 109.143 462.807 109.188C465.842 108.984 470.563 107.961 474.159 103.8C473.935 95.6164 473.485 84.568 472.867 80.135Z" fill="#92E3A9" stroke="#263238" stroke-width="2" stroke-linecap="round" stroke-linejoin="round"/>
<path d="M338.549 243.133C338.549 243.133 329.051 248.93 324.499 255.341C320.003 261.752 319.216 266.867 320.284 269.458C321.352 272.05 326.634 273.005 329.557 270.413C332.479 267.89 334.839 260.456 336.694 258.546C338.549 256.637 341.752 248.589 342.539 245.997C343.326 243.406 338.549 243.133 338.549 243.133Z" fill="#92E3A9" stroke="#263238" stroke-width="2" stroke-linecap="round" stroke-linejoin="round"/>
<path d="M468.09 294.556C468.09 294.556 472.08 301.308 475.789 304.854C479.498 308.332 481.578 315.766 480.51 318.358C479.498 320.881 473.373 322.518 469.382 318.971C465.448 315.425 465.673 308.059 463.594 305.127C461.458 302.262 459.098 302.262 459.323 298.102C459.604 293.874 460.952 291.009 460.952 291.009C460.952 291.009 463.594 295.511 468.09 294.556Z" fill="#92E3A9" stroke="#263238" stroke-width="2" stroke-linecap="round" stroke-linejoin="round"/>
<path d="M464.999 69.7686C463.818 69.0866 462.47 68.6774 460.952 68.2682C455.894 66.9724 445.553 67.9272 441.057 68.882C436.561 69.8368 429.649 72.4284 429.649 72.4284C429.649 72.4284 408.742 85.591 406.888 91.388C405.033 97.185 408.742 121.601 410.091 129.307C411.384 137.014 411.384 138.651 411.384 138.651C411.384 138.651 402.673 151.199 400.537 156.042C398.402 160.816 389.972 178.479 386.487 189.119C383.059 199.69 380.923 209.374 380.137 210.943C379.35 212.579 373.505 211.625 368.503 212.579C363.445 213.534 357.376 216.126 352.599 221.923C347.822 227.72 336.694 244.702 335.907 246.338C335.12 247.907 337.481 250.158 339.335 249.885C341.19 249.544 360.804 239.246 367.941 235.085C375.135 230.925 386.262 229.288 392.051 224.173C397.896 218.99 416.723 191.71 419.87 188.505C423.073 185.231 425.434 184.958 428.637 185.572C431.784 186.254 440.776 195.257 445.553 203.236C450.33 211.284 459.322 232.153 459.322 232.153C459.322 232.153 456.681 241.496 457.243 247.907C457.749 254.386 459.098 273.346 459.322 279.143C459.603 284.871 460.952 294.897 461.964 296.806C463.032 298.716 467.022 299.671 468.09 296.806C469.157 293.874 469.382 270.754 471.012 265.298C472.586 259.842 476.295 236.654 476.295 230.243C476.295 223.832 473.091 197.166 473.091 196.211C473.091 195.257 468.876 176.229 465.167 164.021C461.458 151.813 455.894 138.651 455.894 138.651L453.534 132.24C453.534 132.24 462.245 118.054 463.313 115.531C464.38 112.939 464.661 111.03 464.661 111.03C464.661 111.03 464.437 99.0946 465.336 94.5934" fill="white"/>
<path d="M464.999 69.7686C463.818 69.0866 462.47 68.6774 460.952 68.2682C455.894 66.9724 445.553 67.9272 441.057 68.882C436.561 69.8368 429.649 72.4284 429.649 72.4284C429.649 72.4284 408.742 85.591 406.888 91.388C405.033 97.185 408.742 121.601 410.091 129.307C411.384 137.014 411.384 138.651 411.384 138.651C411.384 138.651 402.673 151.199 400.537 156.042C398.402 160.816 389.972 178.479 386.487 189.119C383.059 199.69 380.923 209.374 380.137 210.943C379.35 212.579 373.505 211.625 368.503 212.579C363.445 213.534 357.376 216.126 352.599 221.923C347.822 227.72 336.694 244.702 335.907 246.338C335.12 247.907 337.481 250.158 339.335 249.885C341.19 249.544 360.804 239.246 367.941 235.085C375.135 230.925 386.262 229.288 392.051 224.173C397.896 218.99 416.723 191.71 419.87 188.505C423.073 185.231 425.434 184.958 428.637 185.572C431.784 186.254 440.776 195.257 445.553 203.236C450.33 211.284 459.322 232.153 459.322 232.153C459.322 232.153 456.681 241.496 457.243 247.907C457.749 254.386 459.098 273.346 459.322 279.143C459.603 284.871 460.952 294.897 461.964 296.806C463.032 298.716 467.022 299.671 468.09 296.806C469.157 293.874 469.382 270.754 471.012 265.298C472.586 259.842 476.295 236.654 476.295 230.243C476.295 223.832 473.091 197.166 473.091 196.211C473.091 195.257 468.876 176.229 465.167 164.021C461.458 151.813 455.894 138.651 455.894 138.651L453.534 132.24C453.534 132.24 462.245 118.054 463.313 115.531C464.38 112.939 464.661 111.03 464.661 111.03C464.661 111.03 464.437 99.0946 465.336 94.5934" stroke="#263238" stroke-width="2" stroke-linecap="round" stroke-linejoin="round"/>
<path d="M465.167 164.021C461.964 153.518 457.412 142.333 456.231 139.401C453.815 142.129 446.677 147.789 428.637 146.016C419.589 145.198 413.295 143.697 408.967 142.197C406.213 146.289 401.942 152.836 400.537 156.042C399.02 159.452 394.355 169.272 390.534 178.548C393.119 184.345 399.301 194.643 411.384 199.553C415.374 194.165 418.69 189.664 419.87 188.505C423.073 185.231 425.434 184.958 428.637 185.572C430.717 185.981 435.437 190.142 439.709 195.188C441.788 190.483 447.127 180.594 456.4 176.229C461.514 173.91 465.111 173.023 467.64 172.887C466.853 169.75 466.01 166.749 465.167 164.021Z" fill="#263238" stroke="#263238" stroke-width="2" stroke-linecap="round" stroke-linejoin="round"/>
<path d="M468.371 73.0422C466.741 70.3142 464.324 69.1548 460.952 68.2682C455.894 66.9724 445.554 67.9272 441.058 68.882C436.562 69.8368 429.649 72.4284 429.649 72.4284C429.649 72.4284 408.743 85.591 406.888 91.388C405.033 97.185 408.743 121.601 410.091 129.307C411.384 137.014 411.384 138.651 411.384 138.651C411.384 138.651 407.281 144.584 403.966 149.835C406.776 153.996 413.969 160.816 431.504 161.498C444.992 161.975 453.478 153.314 458.48 145.061C456.962 141.174 455.894 138.651 455.894 138.651L453.534 132.24C453.534 132.24 460.334 124.67 461.852 122.419C464.662 118.327 464.662 111.03 464.662 111.03C464.662 111.03 464.381 96.2302 465.673 93.3658" fill="#92E3A9"/>
<path d="M468.371 73.0422C466.741 70.3142 464.324 69.1548 460.952 68.2682C455.894 66.9724 445.554 67.9272 441.058 68.882C436.562 69.8368 429.649 72.4284 429.649 72.4284C429.649 72.4284 408.743 85.591 406.888 91.388C405.033 97.185 408.743 121.601 410.091 129.307C411.384 137.014 411.384 138.651 411.384 138.651C411.384 138.651 407.281 144.584 403.966 149.835C406.776 153.996 413.969 160.816 431.504 161.498C444.992 161.975 453.478 153.314 458.48 145.061C456.962 141.174 455.894 138.651 455.894 138.651L453.534 132.24C453.534 132.24 460.334 124.67 461.852 122.419C464.662 118.327 464.662 111.03 464.662 111.03C464.662 111.03 464.381 96.2302 465.673 93.3658" stroke="#263238" stroke-width="2" stroke-linecap="round" stroke-linejoin="round"/>
<path d="M428.075 77.8844C428.075 77.8844 425.715 82.7266 426.502 89.1374C427.288 95.6164 430.998 107.142 430.998 107.142C430.998 107.142 438.135 99.7766 440.271 97.526C442.406 95.2754 445.048 93.3658 445.048 93.3658L457.243 96.2302C457.243 96.2302 455.388 86.273 453.253 81.0898C451.117 75.9748 442.406 71.4736 438.135 71.4736C433.92 71.4736 428.075 77.8844 428.075 77.8844Z" fill="#263238" stroke="#263238" stroke-width="2" stroke-linecap="round" stroke-linejoin="round"/>
<path d="M439.484 95.2754C439.484 95.2754 441.619 100.118 443.193 103.937C444.767 107.824 445.834 109.393 445.834 109.393C445.834 109.393 448.195 93.0248 448.195 90.4332C448.195 87.8416 448.195 87.8416 448.195 87.8416L439.484 95.2754Z" fill="white" stroke="#263238" stroke-width="2" stroke-linecap="round" stroke-linejoin="round"/>
<path d="M426.221 67.9272C426.221 67.9272 427.007 81.0898 428.075 84.0224C429.143 86.8868 435.213 95.2754 437.067 96.2302C438.922 97.185 441.057 96.5712 442.406 95.2754C443.699 93.9796 449.263 87.5688 451.117 84.9772C452.972 82.3856 453.759 75.9748 453.759 75.9748C453.759 75.9748 457.243 74.338 458.255 71.4736C459.322 68.6092 462.132 62.8122 458.76 60.698C455.388 58.652 453.253 59.8796 453.253 59.8796C453.253 59.8796 455.894 54.1508 451.679 52.855C447.408 51.5592 431.784 53.1278 428.637 58.652C425.434 64.108 426.221 67.9272 426.221 67.9272Z" fill="white" stroke="#263238" stroke-width="2" stroke-linecap="round" stroke-linejoin="round"/>
<path d="M436.842 75.9748C436.842 75.9748 435.494 82.3856 435.494 83.3404C435.494 84.3634 437.629 87.2278 439.203 84.6362" stroke="#263238" stroke-width="2" stroke-linecap="round" stroke-linejoin="round"/>
<path d="M437.91 87.8416C437.91 87.8416 441.057 89.4784 443.98 85.932" stroke="#263238" stroke-width="2" stroke-linecap="round" stroke-linejoin="round"/>
<path d="M445.048 76.3158C445.048 77.3388 444.598 78.2254 444.092 78.2254C443.587 78.2254 443.193 77.3388 443.193 76.3158C443.193 75.2246 443.587 74.338 444.092 74.338C444.598 74.338 445.048 75.2246 445.048 76.3158Z" fill="#263238"/>
<path d="M433.246 74.679C433.246 75.7702 432.852 76.5886 432.347 76.5886C431.841 76.5886 431.391 75.7702 431.391 74.679C431.391 73.656 431.841 72.7694 432.347 72.7694C432.852 72.7694 433.246 73.656 433.246 74.679Z" fill="#263238"/>
<path d="M424.816 50.468C424.816 50.468 423.635 55.8558 423.635 60.2206C423.635 64.6536 425.659 69.0866 425.659 69.0866C425.659 69.0866 434.538 72.974 440.158 72.974C445.835 72.974 449.881 70.9962 449.881 70.9962L451.061 61.2436L452.691 66.0858C452.691 66.0858 453.871 63.1532 455.501 62.1984C457.131 61.2436 458.761 60.698 458.761 60.698C458.761 60.698 460.334 46.9898 456.737 38.6694C453.084 30.349 441.001 27.4164 432.065 33.2816C423.186 39.1468 424.816 50.468 424.816 50.468Z" fill="#263238" stroke="#263238" stroke-width="2" stroke-linecap="round" stroke-linejoin="round"/>
<path d="M413.238 84.9772C413.238 84.9772 405.314 88.1826 401.605 95.6164C397.896 102.982 391.545 121.942 390.758 124.192C389.972 126.443 381.991 153.45 381.991 153.45C381.991 153.45 392.838 165.044 399.469 171.728C406.101 178.479 417.734 188.164 417.734 188.164C417.734 188.164 417.229 198.735 418.015 200.372C418.802 201.94 420.657 203.236 421.444 203.918C422.287 204.532 425.434 203.918 425.434 203.918C425.434 203.918 427.288 206.782 427.794 205.214C428.356 203.577 429.424 195.257 428.075 191.71C426.783 188.164 421.219 182.367 421.219 182.367L397.896 148.949L413.238 116.486" fill="#92E3A9"/>
<path d="M413.238 84.9772C413.238 84.9772 405.314 88.1826 401.605 95.6164C397.896 102.982 391.545 121.942 390.758 124.192C389.972 126.443 381.991 153.45 381.991 153.45C381.991 153.45 392.838 165.044 399.469 171.728C406.101 178.479 417.734 188.164 417.734 188.164C417.734 188.164 417.229 198.735 418.015 200.372C418.802 201.94 420.657 203.236 421.444 203.918C422.287 204.532 425.434 203.918 425.434 203.918C425.434 203.918 427.288 206.782 427.794 205.214C428.356 203.577 429.424 195.257 428.075 191.71C426.783 188.164 421.219 182.367 421.219 182.367L397.896 148.949L413.238 116.486" stroke="#263238" stroke-width="2" stroke-linecap="round" stroke-linejoin="round"/>
<path d="M418.015 200.372C418.802 201.94 420.657 203.236 421.444 203.918C422.287 204.532 425.434 203.918 425.434 203.918C425.434 203.918 427.288 206.782 427.794 205.214C428.356 203.577 429.424 195.257 428.075 191.71C426.783 188.164 421.219 182.367 421.219 182.367L397.896 148.949L405.539 132.785C397.896 130.33 393.344 125.897 391.096 123.101C390.946 123.601 390.833 123.965 390.758 124.192C389.972 126.443 381.991 153.45 381.991 153.45C381.991 153.45 392.838 165.044 399.469 171.728C406.101 178.479 417.734 188.164 417.734 188.164C417.734 188.164 417.229 198.735 418.015 200.372Z" fill="white" stroke="#263238" stroke-width="2" stroke-linecap="round" stroke-linejoin="round"/>
<path d="M453.534 132.24C453.534 132.24 446.846 140.628 442.8 142.538" stroke="#263238" stroke-width="2" stroke-linecap="round" stroke-linejoin="round"/>
<path d="M448.645 208.965C451.061 217.626 448.757 224.924 443.418 225.333C438.135 225.742 431.841 218.99 429.368 210.397C426.951 201.736 429.256 194.37 434.538 194.029C439.877 193.62 446.172 200.303 448.645 208.965Z" fill="#92E3A9" stroke="#263238" stroke-width="2" stroke-linecap="round" stroke-linejoin="round"/>
<path d="M433.302 194.234C428.918 195.666 427.12 202.418 429.368 210.397C429.986 212.511 430.829 214.557 431.897 216.399L433.302 194.234Z" fill="white" stroke="#263238" stroke-width="2" stroke-linecap="round" stroke-linejoin="round"/>
<path d="M510.746 286.713L505.856 291.078V404.631L510.746 400.266V286.713Z" fill="#263238" stroke="#263238" stroke-width="2" stroke-linecap="round" stroke-linejoin="round"/>
<path d="M501.023 286.849V400.402L505.744 404.699V291.146L501.023 286.849Z" fill="white" stroke="#263238" stroke-width="2" stroke-linecap="round" stroke-linejoin="round"/>
<path d="M416.835 418.953V426.182L505.407 342.091V334.862L416.835 418.953Z" fill="#263238" stroke="#263238" stroke-width="2" stroke-linecap="round" stroke-linejoin="round"/>
<path d="M500.967 332.27L416.835 412.133V418.748L505.407 334.657V334.112L500.967 332.27Z" fill="white" stroke="#263238" stroke-width="2" stroke-linecap="round" stroke-linejoin="round"/>
<path d="M370.246 419.703L365.356 424.068V537.621L370.246 533.256V419.703Z" fill="#263238" stroke="#263238" stroke-width="2" stroke-linecap="round" stroke-linejoin="round"/>
<path d="M360.523 419.839V533.392L365.244 537.689V424.136L360.523 419.839Z" fill="white" stroke="#263238" stroke-width="2" stroke-linecap="round" stroke-linejoin="round"/>
<path d="M254.586 568.379V575.608L364.907 472.967V465.738L254.586 568.379Z" fill="#263238" stroke="#263238" stroke-width="2" stroke-linecap="round" stroke-linejoin="round"/>
<path d="M360.467 463.146L254.586 561.559V568.174L364.907 465.533V464.988L360.467 463.146Z" fill="white" stroke="#263238" stroke-width="2" stroke-linecap="round" stroke-linejoin="round"/>
<path d="M419.14 369.917L414.25 374.282V487.835L419.14 483.47V369.917Z" fill="#263238" stroke="#263238" stroke-width="2" stroke-linecap="round" stroke-linejoin="round"/>
<path d="M409.417 370.053V483.606L414.138 487.903V374.35L409.417 370.053Z" fill="white" stroke="#263238" stroke-width="2" stroke-linecap="round" stroke-linejoin="round"/>
<path d="M255.036 517.229L250.146 521.594V635.147L255.036 630.782V517.229Z" fill="#263238" stroke="#263238" stroke-width="2" stroke-linecap="round" stroke-linejoin="round"/>
<path d="M245.313 517.365V630.918L250.034 635.215V521.662L245.313 517.365Z" fill="white" stroke="#263238" stroke-width="2" stroke-linecap="round" stroke-linejoin="round"/>
<path d="M86.4919 367.393L81.6025 371.826V485.379L86.4919 480.946V367.393Z" fill="#263238" stroke="#263238" stroke-width="2" stroke-linecap="round" stroke-linejoin="round"/>
<path d="M76.7693 367.598V481.151L81.4901 485.448V371.895L76.7693 367.598Z" fill="white" stroke="#263238" stroke-width="2" stroke-linecap="round" stroke-linejoin="round"/>
<path d="M327.702 158.497L515.41 278.529L250.146 517.229L72.5542 354.913L327.702 158.497Z" fill="white" stroke="#263238" stroke-width="2" stroke-linecap="round" stroke-linejoin="round"/>
<path d="M399.413 213.534L326.185 166.681L82.6702 354.163L162.98 427.546L399.413 213.534Z" fill="#92E3A9" stroke="#263238" stroke-width="2" stroke-linecap="round"/>
<path d="M404.921 217.012L167.701 431.842L250.09 509.045L503.215 281.257L404.921 217.012Z" fill="#92E3A9" stroke="#263238" stroke-width="2" stroke-linecap="round"/>
<path d="M386.487 359.209L202.095 222.468V254.932L386.487 396.174V359.209Z" stroke="#263238" stroke-width="2" stroke-linecap="round"/>
<path d="M386.487 395.083V359.209V395.083Z" fill="white"/>
<path d="M386.487 395.083V359.209" stroke="#263238" stroke-width="6" stroke-linecap="round"/>
<path d="M202.095 222.468V254.932V222.468Z" fill="white"/>
<path d="M202.095 222.468V254.932" stroke="#263238" stroke-width="6" stroke-linecap="round"/>
<path d="M203.051 228.675L385.139 365.484" stroke="#263238" stroke-width="2" stroke-linecap="round"/>
<path d="M203.051 235.699L385.139 372.508" stroke="#263238" stroke-width="2" stroke-linecap="round"/>
<path d="M203.051 242.792L385.139 379.601" stroke="#263238" stroke-width="2" stroke-linecap="round"/>
<path d="M203.051 249.817L385.139 386.626" stroke="#263238" stroke-width="2" stroke-linecap="round"/>
<path d="M206.647 226.492V258.546" stroke="#263238" stroke-width="2" stroke-linecap="round"/>
<path d="M210.076 229.016V261.138" stroke="#263238" stroke-width="2" stroke-linecap="round"/>
<path d="M213.504 231.539V263.798" stroke="#263238" stroke-width="2" stroke-linecap="round"/>
<path d="M216.932 234.131V266.389" stroke="#263238" stroke-width="2" stroke-linecap="round"/>
<path d="M220.36 236.654V269.049" stroke="#263238" stroke-width="2" stroke-linecap="round"/>
<path d="M223.789 239.177V271.641" stroke="#263238" stroke-width="2" stroke-linecap="round"/>
<path d="M227.217 241.701V274.3" stroke="#263238" stroke-width="2" stroke-linecap="round"/>
<path d="M230.645 244.224V276.96" stroke="#263238" stroke-width="2" stroke-linecap="round"/>
<path d="M234.073 246.748V279.552" stroke="#263238" stroke-width="2" stroke-linecap="round"/>
<path d="M237.501 249.271V282.212" stroke="#263238" stroke-width="2" stroke-linecap="round"/>
<path d="M240.929 251.863V284.803" stroke="#263238" stroke-width="2" stroke-linecap="round"/>
<path d="M244.358 254.386V287.463" stroke="#263238" stroke-width="2" stroke-linecap="round"/>
<path d="M247.786 256.909V290.055" stroke="#263238" stroke-width="2" stroke-linecap="round"/>
<path d="M251.214 259.433V292.714" stroke="#263238" stroke-width="2" stroke-linecap="round"/>
<path d="M254.642 261.956V295.306" stroke="#263238" stroke-width="2" stroke-linecap="round"/>
<path d="M258.071 264.48V297.966" stroke="#263238" stroke-width="2" stroke-linecap="round"/>
<path d="M261.499 267.003V300.557" stroke="#263238" stroke-width="2" stroke-linecap="round"/>
<path d="M264.927 269.595V303.217" stroke="#263238" stroke-width="2" stroke-linecap="round"/>
<path d="M268.355 272.118V305.877" stroke="#263238" stroke-width="2" stroke-linecap="round"/>
<path d="M271.783 274.641V308.469" stroke="#263238" stroke-width="2" stroke-linecap="round"/>
<path d="M275.211 277.165V311.128" stroke="#263238" stroke-width="2" stroke-linecap="round"/>
<path d="M278.64 279.688V313.72" stroke="#263238" stroke-width="2" stroke-linecap="round"/>
<path d="M282.068 282.212V316.38" stroke="#263238" stroke-width="2" stroke-linecap="round"/>
<path d="M285.496 284.735V318.971" stroke="#263238" stroke-width="2" stroke-linecap="round"/>
<path d="M288.924 287.327V321.631" stroke="#263238" stroke-width="2" stroke-linecap="round"/>
<path d="M292.353 289.85V324.223" stroke="#263238" stroke-width="2" stroke-linecap="round"/>
<path d="M295.781 292.373V326.883" stroke="#263238" stroke-width="2" stroke-linecap="round"/>
<path d="M299.209 294.897V329.542" stroke="#263238" stroke-width="2" stroke-linecap="round"/>
<path d="M302.637 297.42V332.134" stroke="#263238" stroke-width="2" stroke-linecap="round"/>
<path d="M306.065 299.944V334.794" stroke="#263238" stroke-width="2" stroke-linecap="round"/>
<path d="M309.493 302.467V337.385" stroke="#263238" stroke-width="2" stroke-linecap="round"/>
<path d="M312.922 305.059V340.045" stroke="#263238" stroke-width="2" stroke-linecap="round"/>
<path d="M316.35 307.582V342.637" stroke="#263238" stroke-width="2" stroke-linecap="round"/>
<path d="M319.778 310.105V345.297" stroke="#263238" stroke-width="2" stroke-linecap="round"/>
<path d="M323.262 312.629V347.888" stroke="#263238" stroke-width="2" stroke-linecap="round"/>
<path d="M326.691 315.152V350.548" stroke="#263238" stroke-width="2" stroke-linecap="round"/>
<path d="M330.119 317.676V353.14" stroke="#263238" stroke-width="2" stroke-linecap="round"/>
<path d="M333.547 320.199V355.799" stroke="#263238" stroke-width="2" stroke-linecap="round"/>
<path d="M336.975 322.791V358.459" stroke="#263238" stroke-width="2" stroke-linecap="round"/>
<path d="M340.404 325.314V361.051" stroke="#263238" stroke-width="2" stroke-linecap="round"/>
<path d="M343.832 327.837V363.711" stroke="#263238" stroke-width="2" stroke-linecap="round"/>
<path d="M347.26 330.361V366.302" stroke="#263238" stroke-width="2" stroke-linecap="round"/>
<path d="M350.688 332.884V368.962" stroke="#263238" stroke-width="2" stroke-linecap="round"/>
<path d="M354.116 335.408V371.554" stroke="#263238" stroke-width="2" stroke-linecap="round"/>
<path d="M357.544 337.931V374.213" stroke="#263238" stroke-width="2" stroke-linecap="round"/>
<path d="M360.973 340.523V376.805" stroke="#263238" stroke-width="2" stroke-linecap="round"/>
<path d="M364.401 343.046V379.465" stroke="#263238" stroke-width="2" stroke-linecap="round"/>
<path d="M367.829 345.569V382.056" stroke="#263238" stroke-width="2" stroke-linecap="round"/>
<path d="M371.257 348.093V384.716" stroke="#263238" stroke-width="2" stroke-linecap="round"/>
<path d="M374.686 350.616V387.376" stroke="#263238" stroke-width="2" stroke-linecap="round"/>
<path d="M378.114 353.14V389.968" stroke="#263238" stroke-width="2" stroke-linecap="round"/>
<path d="M381.542 355.663V392.627" stroke="#263238" stroke-width="2" stroke-linecap="round"/>
<path d="M515.579 297.557L250.146 536.12V517.229L515.579 278.665V297.557Z" fill="#263238" stroke="#263238" stroke-width="2" stroke-linecap="round" stroke-linejoin="round"/>
<path d="M72.5542 373.941L249.921 536.257V517.365L72.5542 355.049V373.941Z" fill="white" stroke="#263238" stroke-width="2" stroke-linecap="round" stroke-linejoin="round"/>
<path d="M277.909 179.775C277.909 182.708 275.942 185.095 273.526 185.095C271.053 185.095 269.086 182.708 269.086 179.775C269.086 176.774 271.053 174.387 273.526 174.387C275.942 174.387 277.909 176.774 277.909 179.775Z" fill="white" stroke="#263238" stroke-width="2" stroke-linecap="round" stroke-linejoin="round"/>
<path d="M174.782 316.175L163.935 299.875C163.935 299.875 156.405 294.283 154.775 293.533C153.145 292.714 152.808 288.35 152.808 286.781C152.808 285.144 153.819 277.642 155.112 276.824C156.405 276.005 158.372 277.233 161.013 278.802C163.654 280.438 166.914 291.146 166.914 292.305C166.914 293.533 180.627 305.809 192.092 313.788C203.556 321.699 208.783 330.838 208.783 335.612C208.783 340.386 207.49 341.955 204.568 343.182C201.589 344.342 164.947 342.364 164.947 342.364L168.881 317.744L174.782 316.175Z" fill="white" stroke="#263238" stroke-width="2" stroke-linecap="round" stroke-linejoin="round"/>
<path d="M198.499 324.905C200.072 325.45 201.365 325.996 202.264 326.473" stroke="#263238" stroke-width="2" stroke-linecap="round" stroke-linejoin="round"/>
<path d="M173.096 317.744C173.096 317.744 185.685 320.745 194.677 323.609" stroke="#263238" stroke-width="2" stroke-linecap="round" stroke-linejoin="round"/>
<path d="M88.0093 367.393L86.0423 383.693L62.1573 368.962C62.1573 368.962 64.4615 363.847 64.7987 361.801C65.1359 359.823 63.1689 356.686 62.1573 355.458C61.2019 354.299 58.5605 353.481 58.5605 355.049C58.5605 356.686 58.5605 356.686 58.5605 356.686C58.5605 356.686 55.3009 355.049 53.6711 354.299C52.0413 353.481 49.0627 355.458 50.0743 358.255C51.0297 361.051 50.0743 362.619 50.0743 365.825C50.0743 368.962 50.0743 370.599 52.3223 372.918C54.6265 375.305 59.2349 377.351 59.2349 377.351C59.2349 377.351 76.2635 398.356 81.1529 403.13C86.0423 407.904 90.3135 411.86 93.2359 409.064C96.2145 406.336 103.071 373.736 103.071 373.736L88.0093 367.393Z" fill="white" stroke="#263238" stroke-width="2" stroke-linecap="round" stroke-linejoin="round"/>
<path d="M86.0423 383.693L85.4241 395.56L86.0423 383.693Z" fill="white"/>
<path d="M86.0423 383.693L85.4241 395.56" stroke="#263238" stroke-width="2" stroke-linecap="round" stroke-linejoin="round"/>
<path d="M81.8274 587.407C81.8274 587.407 81.6026 587.884 81.2654 588.702C80.31 591.158 78.1182 596.614 76.8818 600.569C75.252 605.684 78.8488 609.64 82.4456 609.299C86.0424 608.89 87.054 600.91 89.9764 597.773C92.955 594.568 94.922 594.977 95.8774 589.384C96.8328 583.86 94.922 578.677 89.3582 580.655C83.7944 582.633 81.8274 587.407 81.8274 587.407Z" fill="#263238" stroke="#263238" stroke-width="2" stroke-linecap="round" stroke-linejoin="round"/>
<path d="M144.659 621.984C144.659 621.984 138.083 643.399 139.095 644.217C140.05 645.036 151.178 648.173 155.112 648.991C159.046 649.81 168.207 651.378 170.174 648.991C172.141 646.604 164.273 641.421 160.339 637.465C156.405 633.51 151.852 624.371 151.852 624.371L144.659 621.984Z" fill="#263238" stroke="#263238" stroke-width="2" stroke-linecap="round" stroke-linejoin="round"/>
<path d="M114.873 324.086C114.873 324.086 91.606 336.84 91.2688 338.818C90.9878 340.795 85.705 369.78 85.705 369.78L103.745 378.101C103.745 378.101 109.646 393.173 110.264 396.378C110.939 399.584 106.33 406.336 105.375 411.451C104.363 416.634 97.507 429.728 97.1698 448.824C96.8326 467.852 104.363 515.933 104.363 515.933C104.363 515.933 102.396 516.342 98.7996 523.094C95.2028 529.846 92.9548 535.779 90.3134 547.305C87.672 558.831 79.8602 592.59 80.1412 593.817C80.4784 594.977 81.8272 597.364 84.7496 595.386C87.672 593.408 105.712 556.853 111.894 545.327C118.132 533.801 123.359 519.889 124.033 515.524C124.708 511.159 129.934 478.628 129.934 478.628L136.454 483.333C136.454 483.333 153.819 544.168 154.438 545.736C155.112 547.305 148.874 562.036 148.256 569.538C147.581 577.108 143.984 624.371 143.647 627.167C143.31 629.895 144.659 632.691 146.289 632.691C147.918 632.691 151.852 631.941 153.145 626.758C154.438 621.575 171.466 572.334 173.433 561.218C175.4 550.101 175.4 537.007 175.737 534.62C176.075 532.233 176.075 475.831 171.803 456.735C167.532 437.708 164.273 418.202 164.273 418.202C164.273 418.202 165.565 395.219 163.317 378.101C161.013 361.051 160.001 345.16 160.001 345.16L168.881 343.933L174.782 316.175C174.782 316.175 163.317 311.401 154.775 311.81C146.289 312.151 130.553 318.153 128.305 318.903C126 319.722 114.873 324.086 114.873 324.086Z" fill="white" stroke="#263238" stroke-width="2" stroke-linecap="round" stroke-linejoin="round"/>
<path d="M171.804 456.735C169.218 445.141 166.97 433.343 165.622 425.909C158.597 429.387 144.659 434.502 125.663 433.752C110.265 433.07 103.577 429.319 100.711 426.045C98.9683 432.183 97.3385 439.822 97.1699 448.824C97.0575 457.622 98.5749 472.558 100.261 486.13C111.557 494.859 123.303 491.381 128.192 489.335C129.148 483.265 129.935 478.628 129.935 478.628L136.454 483.333C136.454 483.333 139.095 492.677 142.411 504.066C154.606 515.115 168.488 509.727 175.569 505.635C175.176 487.971 174.108 466.965 171.804 456.735Z" fill="#263238" stroke="#263238" stroke-width="2" stroke-linecap="round" stroke-linejoin="round"/>
<path d="M165.565 288.35L163.654 278.051L155.786 275.255L155.112 286.781C155.112 286.781 156.124 286.781 157.079 285.963C158.091 285.144 158.372 282.757 158.372 282.757C158.372 282.757 158.709 289.509 161.35 291.896" fill="white"/>
<path d="M165.565 288.35L163.654 278.051L155.786 275.255L155.112 286.781C155.112 286.781 156.124 286.781 157.079 285.963C158.091 285.144 158.372 282.757 158.372 282.757C158.372 282.757 158.709 289.509 161.35 291.896" stroke="#263238" stroke-width="2" stroke-linecap="round" stroke-linejoin="round"/>
<path d="M178.042 255.409C178.042 267.48 171.242 277.233 162.812 277.233C154.382 277.233 147.581 267.48 147.581 255.409C147.581 243.338 154.382 233.517 162.812 233.517C171.242 233.517 178.042 243.338 178.042 255.409Z" fill="#92E3A9" stroke="#263238" stroke-width="2" stroke-linecap="round" stroke-linejoin="round"/>
<path d="M148.705 263.661C151.01 271.641 156.461 277.233 162.812 277.233C164.891 277.233 166.858 276.619 168.656 275.528L148.705 263.661Z" fill="white" stroke="#263238" stroke-width="2" stroke-linecap="round" stroke-linejoin="round"/>
<path d="M154.775 311.81C146.289 312.151 130.553 318.153 128.305 318.903C126 319.722 114.873 324.086 114.873 324.086C114.873 324.086 91.6061 336.84 91.2689 338.818C90.9879 340.795 85.7051 369.78 85.7051 369.78L103.745 378.101C103.745 378.101 109.646 393.173 110.264 396.378C110.939 399.584 106.33 406.336 105.375 411.451C104.757 414.588 102.115 420.521 99.9799 428.842C103.745 434.229 112.512 443.095 129.597 444.459C144.715 445.619 158.653 439.481 167.251 434.502C165.453 425.022 164.273 418.202 164.273 418.202C164.273 418.202 165.565 395.219 163.317 378.101C161.013 361.051 160.001 345.16 160.001 345.16L168.881 343.933L174.782 316.175C174.782 316.175 163.317 311.401 154.775 311.81Z" fill="#92E3A9" stroke="#263238" stroke-width="2" stroke-linecap="round" stroke-linejoin="round"/>
<path d="M160.002 345.16C160.002 345.16 157.416 355.868 154.438 361.46" stroke="#263238" stroke-width="2" stroke-linecap="round" stroke-linejoin="round"/>
<path d="M94.9218 352.048L93.2358 347.138" stroke="#263238" stroke-width="2" stroke-linecap="round" stroke-linejoin="round"/>
<path d="M103.745 378.101L96.6079 357.027" stroke="#263238" stroke-width="2" stroke-linecap="round" stroke-linejoin="round"/>
<path d="M162.924 375.305C161.968 367.734 161.294 360.573 160.788 355.117C156.461 366.848 142.13 400.198 108.859 437.503C111.557 439.344 114.76 440.981 118.582 442.277C141.512 415.747 155.281 391.536 162.924 375.305Z" fill="#263238"/>
<path d="M163.992 384.307C156.91 398.97 144.715 420.385 125.045 443.846C126.506 444.118 127.967 444.323 129.597 444.459C132.407 444.664 135.217 444.664 137.971 444.391C149.492 429.796 158.203 416.225 164.666 404.699C164.666 398.629 164.554 391.332 163.992 384.307Z" fill="#263238"/>
<path d="M138.084 252.204C138.084 252.204 123.696 245.043 114.199 245.043C104.701 245.043 94.922 257.796 94.922 257.796L100.149 256.159C100.149 256.159 91.9434 263.729 89.9764 269.663C88.0094 275.664 87.054 285.144 87.054 285.144L90.988 283.166C90.988 283.166 89.3582 294.283 90.988 302.672C92.6178 310.992 98.5188 319.722 98.5188 319.722L100.486 314.948C100.486 314.948 107.005 324.496 109.309 327.292C111.613 330.088 118.133 333.634 118.133 333.634L128.586 324.905C128.586 324.905 128.586 331.247 128.586 330.088C128.586 328.86 133.194 324.496 141.062 314.538C148.874 304.649 151.853 283.985 150.841 272.05C149.886 260.183 138.084 252.204 138.084 252.204Z" fill="#263238" stroke="#263238" stroke-width="2" stroke-linecap="round" stroke-linejoin="round"/>
</svg>
