<svg width="376" height="416" viewBox="0 0 376 416" fill="none" xmlns="http://www.w3.org/2000/svg">
<path d="M231.752 37.0819L238.43 69.3229L268.379 82.067L240.138 98.6846L237.202 131.555L213.06 109.579L181.303 117.143L194.626 86.9503L177.941 58.749L210.318 62.0748L231.752 37.0819Z" fill="url(#paint0_linear_350_351)"/>
<path d="M136.401 67.794L141.148 90.7396L162.469 99.8193L142.352 111.648L140.266 135.045L123.092 119.413L100.485 124.788L109.972 103.299L98.0817 83.218L121.135 85.5797L136.401 67.794Z" fill="url(#paint1_linear_350_351)"/>
<path d="M82.1871 125.461L85.8741 143.252L102.408 150.289L86.8195 159.458L85.193 177.582L71.8751 165.456L54.3544 169.63L61.7103 152.984L52.4982 137.421L70.3574 139.251L82.1871 125.461Z" fill="url(#paint2_linear_350_351)"/>
<path d="M300.365 110.069L285.116 127.859L262.062 125.498L273.952 145.579L264.465 167.067L287.056 161.689L304.247 177.324L306.333 153.928L326.45 142.099L305.128 133.019L300.365 110.069Z" fill="url(#paint3_linear_350_351)"/>
<path d="M319.936 186.761L308.106 200.551L290.231 198.716L299.443 214.279L292.103 230.93L309.624 226.755L322.942 238.881L324.552 220.753L340.14 211.585L323.623 204.551L319.936 186.761Z" fill="url(#paint4_linear_350_351)"/>
<path d="M211.99 286.397L223.284 373.843L189.546 357.067L189.688 357.051L161.393 382.47L150.119 295.011L211.99 286.397Z" fill="url(#paint5_linear_350_351)"/>
<path d="M179.108 303.153L125.95 373.507L113.984 337.409L114.101 337.492L76.4904 335.328L129.627 264.986L179.108 303.153Z" fill="url(#paint6_linear_350_351)"/>
<path d="M270.007 243.109C268.848 247.605 262.412 250.212 260.634 254.354C258.815 258.591 261.308 265.099 258.908 268.906C256.453 272.786 249.543 273.269 246.573 276.665C243.574 280.106 243.939 287.084 240.473 289.983C236.983 292.912 230.276 291.2 226.406 293.521C222.515 295.854 220.75 302.634 216.557 304.327C212.381 306.025 206.537 302.306 202.119 303.326C197.759 304.327 194.017 310.246 189.493 310.537C185.039 310.828 180.641 305.462 176.113 305.032C171.702 304.615 166.345 309.081 161.913 307.939C157.482 306.796 154.952 300.296 150.89 298.529C146.718 296.716 140.274 299.286 136.516 296.878C132.697 294.435 132.283 287.445 128.95 284.461C125.577 281.432 118.664 281.862 115.828 278.356C112.977 274.846 114.71 268.058 112.433 264.135C110.167 260.232 103.468 258.487 101.829 254.237C100.198 250.023 103.891 244.092 102.93 239.629C101.972 235.221 96.1572 231.456 95.8849 226.873C95.6238 222.381 100.953 217.89 101.409 213.301C101.856 208.816 97.483 203.421 98.6419 198.926C99.7967 194.447 106.237 191.823 108.011 187.697C109.83 183.46 107.337 176.952 109.737 173.146C112.192 169.266 119.102 168.782 122.072 165.387C125.071 161.945 124.706 154.968 128.176 152.052C131.662 149.14 138.369 150.852 142.243 148.514C146.13 146.198 147.895 139.418 152.088 137.725C156.265 136.027 162.108 139.746 166.526 138.725C170.886 137.725 174.628 131.806 179.152 131.515C183.606 131.223 188.004 136.589 192.532 137.019C196.943 137.437 202.3 132.97 206.732 134.113C211.163 135.255 213.693 141.755 217.755 143.523C221.927 145.336 228.371 142.765 232.129 145.174C235.948 147.616 236.362 154.606 239.695 157.591C243.068 160.62 249.981 160.19 252.817 163.696C255.668 167.205 253.935 173.993 256.217 177.9C258.478 181.82 265.177 183.565 266.82 187.799C268.447 192.029 264.754 197.96 265.715 202.422C266.673 206.831 272.488 210.596 272.76 215.179C273.021 219.671 267.692 224.162 267.236 228.751C266.793 233.22 271.162 238.631 270.007 243.109Z" fill="url(#paint7_linear_350_351)"/>
<path d="M248.322 237.519C239.076 273.38 202.919 295.051 167.584 285.941C132.25 276.831 111.079 240.379 120.325 204.517C129.568 168.671 165.724 147 201.059 156.111C236.393 165.221 257.564 201.673 248.322 237.519Z" fill="white"/>
<path d="M242.284 235.962C233.908 268.448 201.167 288.085 169.159 279.832C137.152 271.58 117.987 238.56 126.363 206.074C134.735 173.604 167.477 153.967 199.484 162.219C231.491 170.472 250.656 203.492 242.284 235.962Z" fill="url(#paint8_linear_350_351)"/>
<path d="M226.691 206.549L170.316 249.505L164.301 254.101L159.793 247.688L144.438 225.87L160.549 216.222L168.111 232.343L213.336 190.269L226.691 206.549Z" fill="white"/>
<defs>
<linearGradient id="paint0_linear_350_351" x1="235.547" y1="-1.87134" x2="306.406" y2="89.9548" gradientUnits="userSpaceOnUse">
<stop stop-color="#F2BD27"/>
<stop offset="1" stop-color="#F28B27"/>
</linearGradient>
<linearGradient id="paint1_linear_350_351" x1="139.087" y1="40.0567" x2="189.535" y2="105.437" gradientUnits="userSpaceOnUse">
<stop stop-color="#F2BD27"/>
<stop offset="1" stop-color="#F28B27"/>
</linearGradient>
<linearGradient id="paint2_linear_350_351" x1="84.285" y1="103.964" x2="123.387" y2="154.636" gradientUnits="userSpaceOnUse">
<stop stop-color="#F2BD27"/>
<stop offset="1" stop-color="#F28B27"/>
</linearGradient>
<linearGradient id="paint3_linear_350_351" x1="303.067" y1="82.3362" x2="353.515" y2="147.716" gradientUnits="userSpaceOnUse">
<stop stop-color="#F2BD27"/>
<stop offset="1" stop-color="#F28B27"/>
</linearGradient>
<linearGradient id="paint4_linear_350_351" x1="322.017" y1="165.259" x2="361.12" y2="215.932" gradientUnits="userSpaceOnUse">
<stop stop-color="#F2BD27"/>
<stop offset="1" stop-color="#F28B27"/>
</linearGradient>
<linearGradient id="paint5_linear_350_351" x1="255.883" y1="284.403" x2="274.307" y2="401.754" gradientUnits="userSpaceOnUse">
<stop stop-color="#57111F"/>
<stop offset="0.334" stop-color="#8A1C32"/>
</linearGradient>
<linearGradient id="paint6_linear_350_351" x1="219.748" y1="323.641" x2="153.368" y2="408.596" gradientUnits="userSpaceOnUse">
<stop stop-color="#691525"/>
<stop offset="0.334" stop-color="#9B1F37"/>
</linearGradient>
<linearGradient id="paint7_linear_350_351" x1="218.304" y1="57.3389" x2="355.524" y2="235.157" gradientUnits="userSpaceOnUse">
<stop stop-color="#F2BD27"/>
<stop offset="1" stop-color="#F28B27"/>
</linearGradient>
<linearGradient id="paint8_linear_350_351" x1="207.315" y1="110.294" x2="300.146" y2="230.591" gradientUnits="userSpaceOnUse">
<stop stop-color="#F2BD27"/>
<stop offset="1" stop-color="#F28B27"/>
</linearGradient>
</defs>
</svg>
