<svg version="1.2" xmlns="http://www.w3.org/2000/svg" viewBox="0 0 232 47" width="auto" height="auto">
	<title>logo-svg</title>
	<defs>
		<clipPath clipPathUnits="userSpaceOnUse" id="cp1">
			<path d="m188.6 3.71h39v41.25h-39z"/>
		</clipPath>
	</defs>
	<style>
		.s0 { fill: #1ef0ae } 
		.s1 { fill: #ffffff } 
	</style>
	<g id="Clip-Path" clip-path="url(#cp1)">
		<g id="Layer">
			<path id="Layer" fill-rule="evenodd" class="s0" d="m227.6 7.4v33.9c0 2-1.7 3.7-3.7 3.7h-31.6c-2 0-3.7-1.7-3.7-3.7v-33.9c0-2 1.7-3.7 3.7-3.7h31.6c2 0 3.7 1.7 3.7 3.7zm-1.9 0c0-1-0.8-1.9-1.8-1.9h-31.6c-1 0-1.8 0.9-1.8 1.9v33.9c0 1 0.8 1.8 1.8 1.8h31.6c1 0 1.8-0.8 1.8-1.8zm-22.8 17.6q-0.3-0.3-0.3-0.6c0-0.1 0-0.2 0-0.2q0-0.2 0.1-0.2c0-0.1 0-0.1 0.1-0.2q0-0.1 0.1-0.1c0.2-0.2 0.5-0.3 0.8-0.3 0.1 0 0.1 0 0.2 0.1q0 0.1 0.1 0.1 0.1 0 0.2 0.1c0 0 0 0.1 0 0.1 0.1 0.1 0.1 0.1 0.1 0.2 0 0.1 0.1 0.1 0.1 0.2 0 0 0 0.1 0 0.2q0 0.3-0.3 0.6-0.3 0.3-0.6 0.3c-0.3 0-0.5-0.1-0.6-0.3zm5.9-1.3q0.2 0.3 0.2 0.7c0 0.2-0.1 0.4-0.3 0.6q-0.3 0.2-0.6 0.2c-0.1 0-0.2 0-0.2 0-0.1 0-0.2 0-0.2 0-0.1-0.1-0.1-0.1-0.2-0.1q0 0-0.1-0.1c-0.1 0-0.1-0.2-0.2-0.3 0-0.1 0-0.2 0-0.3q0-0.4 0.2-0.7c0.4-0.4 1-0.4 1.4 0zm4.6 0q0.3 0.3 0.3 0.7c0 0.1 0 0.2-0.1 0.3q-0.1 0.2-0.2 0.3-0.3 0.3-0.7 0.3-0.3 0-0.7-0.3c0 0-0.1-0.2-0.1-0.3-0.1-0.1-0.1-0.2-0.1-0.3q0-0.4 0.3-0.7c0-0.1 0.1-0.1 0.1-0.1q0.1-0.1 0.2-0.1c0.1 0 0.1-0.1 0.2-0.1 0.3 0 0.6 0.1 0.8 0.3zm4.6 0q0.3 0.3 0.3 0.7c0 0.1 0 0.2-0.1 0.3q0 0.2-0.2 0.3-0.3 0.3-0.6 0.3-0.4 0-0.7-0.3c-0.1 0-0.2-0.2-0.2-0.3 0-0.1 0-0.2 0-0.3q0-0.4 0.2-0.7c0.4-0.4 1-0.4 1.3 0zm4.9 0.5c0 0 0 0.1 0 0.2 0 0.1 0 0.2 0 0.4q-0.1 0.1-0.2 0.2-0.1 0.1-0.2 0.1 0 0.1-0.1 0.1c-0.1 0-0.1 0.1-0.2 0.1 0 0-0.1 0-0.2 0-0.1 0-0.2 0-0.4-0.1q-0.1-0.1-0.3-0.2c-0.1 0-0.1-0.2-0.2-0.3 0-0.1 0-0.2 0-0.3q0-0.4 0.3-0.7c0-0.1 0.1-0.1 0.1-0.1q0.1-0.1 0.2-0.1c0 0 0.1-0.1 0.1-0.1 0.2 0 0.3 0 0.4 0 0.1 0 0.1 0 0.2 0.1 0 0 0.1 0 0.1 0.1q0.1 0 0.2 0.1 0 0 0.1 0.1 0 0.1 0.1 0.2c0 0.1 0 0.1 0 0.2zm-29.4 0.8q-0.3-0.3-0.2-0.6c0-0.1 0-0.2 0-0.2 0-0.1 0-0.1 0-0.2q0-0.1 0.1-0.2c0 0 0-0.1 0.1-0.1 0.4-0.4 1-0.4 1.3 0q0.1 0 0.1 0.1c0 0.1 0 0.1 0.1 0.2 0 0 0 0.1 0 0.2 0 0 0 0.1 0 0.2q0 0.3-0.3 0.6c-0.1 0.2-0.3 0.3-0.5 0.3q-0.4 0-0.7-0.3zm4.4-0.3c0-0.1 0-0.2 0-0.3q0-0.4 0.3-0.7c0 0 0.1 0 0.1-0.1q0.1-0.1 0.1-0.1c0.1 0 0.2 0 0.2 0q0.5-0.1 0.9 0.2 0.2 0.3 0.2 0.7c0 0.1 0 0.2 0 0.3q-0.1 0.2-0.2 0.3-0.3 0.3-0.7 0.3-0.3 0-0.6-0.3-0.2-0.1-0.3-0.3zm7.4 14.8c0 0.5-0.4 0.9-0.9 0.9h-10.2c-0.5 0-0.9-0.4-0.9-0.9 0-0.5 0.4-0.9 0.9-0.9h10.2c0.5 0 0.9 0.4 0.9 0.9zm17.6-30.3c0 0.5-0.4 0.9-0.9 0.9h-10.2c-0.5 0-0.9-0.4-0.9-0.9 0-0.5 0.4-0.9 0.9-0.9h10.2c0.5 0 0.9 0.4 0.9 0.9zm-15.7 23.7c0 0 0 0.1 0 0.2q0 0.3-0.3 0.6c-0.1 0.1-0.2 0.1-0.3 0.2-0.1 0.1-0.2 0.1-0.4 0.1-0.1 0-0.2 0-0.3-0.1q-0.2-0.1-0.3-0.2-0.3-0.3-0.3-0.6 0-0.4 0.3-0.7c0.3-0.3 0.9-0.3 1.3 0 0 0.1 0 0.1 0.1 0.2q0.1 0 0.1 0.1c0 0.1 0 0.1 0.1 0.2z"/>
		</g>
	</g>
	<g id="Layer">
		<g id="Layer">
			<g id="Layer">
				<path id="Layer" fill-rule="evenodd" class="s1" d="m20.2 3.7q5.5 0 9.7 1.9 4.1 1.8 6.3 5.3 2.2 3.4 2.2 8 0 4.7-2.2 8.1-2.2 3.4-6.3 5.3-4.2 1.8-9.7 1.8h-7.2v10.8h-11.6v-41.2zm-0.7 21.2q3.5 0 5.3-1.5 1.9-1.6 1.9-4.5 0-2.8-1.9-4.4-1.8-1.6-5.3-1.6h-6.5v12z"/>
			</g>
		</g>
	</g>
	<g id="Layer">
		<g id="Layer">
			<g id="Layer">
				<path id="Layer" fill-rule="evenodd" class="s1" d="m65.4 45.7q-6.5 0-11.7-2.8-5.2-2.7-8.2-7.6-2.9-4.9-2.9-11 0-6.1 2.9-11 3-4.9 8.2-7.6 5.2-2.8 11.7-2.8 6.5 0 11.7 2.8 5.2 2.7 8.2 7.6 3 4.9 3 11 0 6.1-3 11-3 4.9-8.2 7.6-5.2 2.8-11.7 2.8zm0-9.6q3.1 0 5.7-1.5 2.5-1.5 4-4.2 1.4-2.6 1.4-6.1 0-3.5-1.4-6.1-1.5-2.7-4-4.2-2.6-1.5-5.7-1.5-3.1 0-5.6 1.5-2.6 1.5-4 4.2-1.5 2.6-1.5 6.1 0 3.5 1.5 6.1 1.4 2.7 4 4.2 2.5 1.5 5.6 1.5z"/>
			</g>
		</g>
	</g>
	<g id="Layer">
		<g id="Layer">
			<g id="Layer">
				<path id="Layer" class="s1" d="m133.5 3.7v41.2h-9.6l-18.1-22v22h-11.4v-41.2h9.6l18.1 21.9v-21.9z"/>
			</g>
		</g>
	</g>
	<g id="Layer">
		<g id="Layer">
			<g id="Layer">
				<path id="Layer" class="s1" d="m169.3 23.4h10.3v17.1q-3.5 2.5-8.1 3.8-4.6 1.4-9.2 1.4-6.5 0-11.6-2.7-5.2-2.8-8.1-7.7-3-4.8-3-11 0-6.2 3-11 2.9-4.9 8.1-7.7 5.2-2.7 11.8-2.7 5.8 0 10.4 1.9 4.6 2 7.6 5.6l-7.4 6.7q-4.2-4.6-10-4.6-5.3 0-8.5 3.2-3.2 3.2-3.2 8.6 0 3.4 1.4 6.1 1.5 2.7 4.2 4.2 2.6 1.5 6 1.5 3.4 0 6.3-1.4z"/>
			</g>
		</g>
	</g>
</svg>