<svg version="1.2" xmlns="http://www.w3.org/2000/svg" viewBox="0 0 154 43" width="154" height="43">
	<title>logo2-svg</title>
	<defs>
		<clipPath clipPathUnits="userSpaceOnUse" id="cp1">
			<path d="m36.83 6.7h39.21v36.3h-39.21z"/>
		</clipPath>
	</defs>
	<style>
		.s0 { fill: #1ef0ae } 
		.s1 { fill: #ffffff } 
	</style>
	<g id="Clip-Path" clip-path="url(#cp1)">
		<g id="Layer">
			<path id="Layer" class="s0" d="m75.6 22.2c-0.4 3-1.9 5.9-4.6 8.2-5 4.3-11.8 1.1-18.9 7.3 0-5.7 9.2-10.2 9.2-10.2 0 0-22.4-1.9-23.5 15.5-2.5-8.9-0.1-19.2 10.4-22.6-7.2-1.1-9.1 4.1-9.2 4.2 0-3.9 2.6-8.3 9.2-13.9 2.2-1.9 4.9-3.1 7.7-3.7-1.5 3.6-0.9 7.6 1.6 10.9 3.8 5.2 12 6.9 18.1 4.3z"/>
		</g>
	</g>
	<path id="Layer" fill-rule="evenodd" class="s0" d="m78.5 18.9c-12.5 10-29.7-4.9-18.2-15.7 5.1-4.3 13.2-4.3 18.2 0 5 4.4 5 11.4 0 15.7zm-16.5-14.2c-3.8 3.4-0.8 6 3.1 2.7 3.9-3.4 0.8-6-3.1-2.7z"/>
	<path id="Layer" fill-rule="evenodd" class="s1" d="m39.2 15.4c0 8.5-7 14.7-17.7 14.7-4.4 0-9.1-1.5-11.7-4.5 0.1 4.5 0.3 9 0.9 13.5-4.1-0.5-7.5-0.5-10.7-0.1 1.2-7 1.2-25.6 0-35.2 3.8-0.2 8.1-0.8 10.5-1.7-1.1 3.7-1.5 6.6-1.8 9.4h0.7c2.4-4.9 7.5-9.3 15.3-9.3 8.4 0 14.5 5.3 14.5 13.2zm-9.2 0.5c0-5-3.5-8.4-9.7-8.4-8.6 0-10.5 6.1-10.5 11.4v4.1c2.7 2.2 5.8 2.8 8.6 2.8 6.4 0 11.6-3.4 11.6-9.9z"/>
	<path id="Layer" class="s1" d="m84.3 29.3h9.8v-10.5c0-6.2 3.3-10.5 9.4-10.5 5.3 0 8.1 3.7 8.1 9.5v11.5h9.7c-1-4.7-0.8-10.7-0.8-15.9 0-6.1-2.9-11.2-11.7-11.2-7.3 0-12.8 4.4-15 10.4h-0.8c0.3-3.8 0.7-6.7 1.8-10.5-2.4 0.9-6.7 1.5-10.5 1.7 1.2 10 1.2 17.8 0 25.5z"/>
	<path id="Layer" fill-rule="evenodd" class="s1" d="m153.4 25.1c0 6.1-1.2 15.2-19 15.2-6.2 0-12.4-1-17.2-3.1 0.8-1.7 0.8-4.6 0-6.4 3.8 2.6 10.7 4.1 16.4 4.1 5.9 0 10.8-2.1 10.8-8v-1.6c-2.3 2.4-6.4 3.7-11.6 3.7-10.8 0-17.8-5.3-17.8-13.7 0-7.8 6.1-13.1 14.6-13.1 7.7 0 12.9 4.5 15.2 9.3h0.7c-0.3-2.7-0.3-4.7-1.2-7.7 3.6-0.2 7.4-0.8 9.7-1.7-0.8 7.7-0.6 17.9-0.6 23zm-9-3v-3.2c0-5.3-1.8-11.4-10.5-11.4-6.2 0-9.7 3.4-9.7 8.4 0 6.2 5.2 8.9 11.6 8.9 2.8 0 6-0.6 8.6-2.7z"/>
</svg>