<svg xmlns="http://www.w3.org/2000/svg" data-name="Layer 1" viewBox="0 0 512 512" id="disappointed-face"><circle cx="256" cy="256" r="219.5" fill="#fdd402"></circle><path fill="#2c2b2d" d="M165.5,230A35.54028,35.54028,0,0,0,201,194.5a7.5,7.5,0,0,0-15,0,20.5,20.5,0,0,1-41,0,7.5,7.5,0,0,0-15,0A35.54028,35.54028,0,0,0,165.5,230Zm209-43a7.50006,7.50006,0,0,0-7.5,7.5,20.5,20.5,0,0,1-41,0,7.5,7.5,0,0,0-15,0,35.5,35.5,0,0,0,71,0A7.50006,7.50006,0,0,0,374.5,187ZM353.19336,347.94678A132.16887,132.16887,0,0,0,259.5,309.14014h-7a131.47793,131.47793,0,0,0-53.34082,11.17529,133.55143,133.55143,0,0,0-62.24854,56.51221,7.50013,7.50013,0,0,0,13.07911,7.34472,118.4576,118.4576,0,0,1,55.21435-50.1289A116.57358,116.57358,0,0,1,252.5,324.14014h7a117.16738,117.16738,0,0,1,83.08691,34.41308,117.92616,117.92616,0,0,1,19.42432,25.62061,7.5,7.5,0,0,0,13.07715-7.34766A132.92018,132.92018,0,0,0,353.19336,347.94678Zm63.31982-252.46A226.99992,226.99992,0,1,0,95.48682,416.51318,226.99992,226.99992,0,1,0,416.51318,95.48682ZM256,468C139.103,468,44,372.897,44,256S139.103,44,256,44s212,95.103,212,212S372.897,468,256,468Z"></path></svg>