<svg width="46" height="56" viewBox="0 0 46 56" fill="none" xmlns="http://www.w3.org/2000/svg">
<path d="M20.2889 40.8148L12.3555 30.9704C12.3555 30.9704 22.7955 0.400471 43.9034 2.06564C43.9034 2.06564 46.8405 26.2786 20.2889 40.8148Z" stroke="white" stroke-width="3"/>
<path d="M43.2536 12.3499C41.3327 11.9682 39.5594 10.8386 38.1897 9.12433C36.7814 7.38172 35.8613 5.12396 35.5649 2.68359" stroke="white" stroke-width="3"/>
<path d="M31.708 22.9274C34.2623 22.9274 36.333 20.3579 36.333 17.1883C36.333 14.0187 34.2623 11.4492 31.708 11.4492C29.1537 11.4492 27.083 14.0187 27.083 17.1883C27.083 20.3579 29.1537 22.9274 31.708 22.9274Z" stroke="white" stroke-width="3"/>
<path d="M21.8253 39.9348L21.3105 44.836C21.3063 44.8796 21.3114 44.9237 21.3253 44.964C21.3391 45.0043 21.3612 45.0395 21.3893 45.0659C21.4175 45.0924 21.4507 45.1093 21.4857 45.1149C21.5208 45.1205 21.5564 45.1146 21.589 45.0979L28.3408 41.4638C28.6174 41.3063 28.8605 41.0709 29.051 40.7764C29.2414 40.4819 29.374 40.1364 29.438 39.7672L30.4677 33.6616" stroke="white" stroke-width="3"/>
<path d="M12.8703 29.5986L8.91207 30.227C8.87803 30.2324 8.84346 30.2265 8.81186 30.2099C8.78026 30.1933 8.75277 30.1666 8.73218 30.1326C8.7116 30.0985 8.69865 30.0583 8.69467 30.016C8.69069 29.9737 8.69581 29.9309 8.70951 29.8918L11.6297 21.566C11.756 21.2074 11.95 20.8917 12.1953 20.6456C12.4406 20.3995 12.73 20.2303 13.0391 20.1522L17.9511 18.8745" stroke="white" stroke-width="3"/>
<path d="M14.1279 33.1489C8.5998 35.3482 8.32129 46.2084 8.32129 46.2084C8.32129 46.2084 16.8286 46.3236 18.947 39.1289" stroke="white" stroke-width="3"/>
<path d="M5.17337 50.0518L2 54" stroke="white" stroke-width="3" stroke-linecap="round"/>
<path d="M4.93693 42.522L2.24463 45.8523" stroke="white" stroke-width="3" stroke-linecap="round"/>
<path d="M11.1321 50.3555L8.44824 53.6963" stroke="white" stroke-width="3" stroke-linecap="round"/>
</svg>
