<svg width="42" height="68" viewBox="0 0 42 68" fill="none" xmlns="http://www.w3.org/2000/svg">
<path d="M42 20.4771C40.8604 15.7647 38.6715 13.4266 38.6715 13.4266C39.4786 12.7647 40.6588 13.2135 40.6588 13.2135C39.0166 9.4588 35.2464 8.4524 35.2464 8.4524C35.7252 7.82227 37.3191 7.45167 37.3191 7.45167C34.8992 4.92547 31.4622 5.84687 31.4622 5.84687C31.6582 4.64213 32.5227 3.86353 32.5227 3.86353C29.1417 2.2814 25.8104 4.522 25.8104 4.522C25.8965 3.29687 26.8905 2.21 26.8905 2.21C25.4002 1.54587 21.098 3.41473 21.098 3.41473C21.5047 1.8564 20.6731 0.3468 20.6731 0.3468C19.117 2.14087 16.1749 1.98673 16.1749 1.98673C16.3723 1.07213 17.0212 0 17.0212 0C14.6629 0 13.1845 0.709467 12.2514 1.65693C11.5794 1.80427 10.9627 2.07173 10.4069 2.42307C10.0247 2.52507 9.5662 2.7812 9.2218 3.38753C8.95286 3.66858 8.7005 3.98916 8.4679 4.3452C8.28368 4.08056 8.16401 3.71796 8.1305 3.32293C8.1305 3.32293 7.3941 5.03313 7.6055 6.33873C7.52682 6.664 7.47777 7.00607 7.4599 7.3542C7.4375 7.34287 7.4158 7.3304 7.3941 7.32133C6.8838 7.06067 6.2482 6.73427 5.7043 6.73427C5.25019 6.73342 4.80157 6.89479 4.3904 7.20687C4.16001 6.73662 3.86726 6.35628 3.5338 6.09399C3.20034 5.8317 2.83472 5.69418 2.464 5.6916C1.81191 5.69069 1.18624 6.10869 0.724287 6.85384C0.262338 7.599 0.00185387 8.61044 0 9.6662C0 11.6393 0.8981 13.2702 2.0671 13.5773L2.5452 15.4167L3.0002 13.9536L3.6386 13.6419H6.0235C6.2923 13.7949 6.6192 14.0851 6.9727 14.654C7.3136 15.2014 7.5831 15.7386 7.9058 16.1103H4.4471L3.5945 15.6944L3.318 14.8047L2.9113 16.1103H1.8151C1.33431 16.1103 0.873163 16.4192 0.532866 16.9691C0.192569 17.519 0.00092709 18.265 0 19.0434C0 19.9353 0.2527 20.7253 0.6419 21.2636C0.2814 23.1574 0.6615 25.6825 2.6089 27.3326C1.9999 26.2344 2.1721 24.157 2.1721 24.157C2.786 26.8702 4.1853 26.8963 4.9056 26.7081C3.3677 29.4202 2.5921 33.4685 2.5921 38.8382C2.5921 49.9483 5.6028 55.5798 11.5416 55.5798C14.1918 55.5798 17.4265 54.4555 21.4312 52.1413C24.2746 50.5013 26.9801 49.6332 29.2572 49.6332C32.2567 49.6332 34.3518 51.1927 34.3518 53.4253C34.3518 55.8371 32.676 59.3572 24.8745 62.5713C24.4983 61.8783 23.9721 61.4458 23.4045 61.3632C21.2947 61.0731 20.5555 62.6144 19.4887 62.3832C19.4887 62.3832 20.1054 63.0473 20.9398 63.1663C20.9398 63.1663 19.3641 64.5671 16.723 63.7931C16.723 63.7931 18.55 66.6037 20.7494 65.7945C20.7494 65.7945 20.5303 66.6751 19.9374 67.3665C19.9374 67.3665 21.259 68 22.4448 66.5675C22.4448 66.5675 22.6051 67.1013 21.8113 68C23.6166 67.8073 24.612 66.9517 25.06 65.9192C25.3015 65.9067 25.543 65.8943 25.7775 65.8784C25.8041 66.164 25.8748 66.3691 25.8748 66.3691C26.0113 66.1606 26.1912 65.9838 26.3949 65.8297C27.4957 65.7439 28.5946 65.6018 29.6898 65.4035C29.4763 65.9022 29.1613 66.4462 29.1613 66.4462C32.2259 65.9974 33.4971 64.3699 33.4971 64.3699C33.6091 65.0941 32.9063 66.1028 32.9063 66.1028C35.9177 65.8036 36.7521 62.3481 36.7521 62.3481C37.3464 62.8059 37.2491 63.6763 37.2491 63.6763C39.7012 61.693 39.8391 57.6753 39.8391 57.6753C40.3991 57.9122 41.062 58.6897 41.062 58.6897C41.7683 53.873 40.271 51.0884 40.271 51.0884C40.4719 51.4273 41.4729 51.5111 41.4729 51.5111C41.4344 47.4912 39.5066 45.9147 39.5066 45.9147C40.1107 44.7723 41.3861 45.8082 41.3861 45.8082C40.1114 40.5665 36.6982 41.0981 36.6982 41.0981C37.0874 40.2129 38.6211 39.4683 38.6211 39.4683C37.0013 37.6867 33.0358 38.5832 33.0358 38.5832C36.4056 37.2198 37.3401 33.3744 37.3401 33.3744C37.5018 34.0963 37.3996 36.4752 37.3996 36.4752C39.8944 33.1455 39.333 28.8977 39.333 28.8977C40.1548 29.3023 40.5538 31.127 40.5538 31.127C42.3689 25.3538 40.3788 21.6478 40.3788 21.6478C41.3588 21.6501 42 20.4771 42 20.4771ZM11.2882 7.76107C11.2882 8.91253 10.7072 9.84413 9.9918 9.84413C9.8222 9.84518 9.65413 9.79212 9.49719 9.688C9.34025 9.58389 9.19752 9.43074 9.07713 9.23731C8.95675 9.04388 8.86108 8.81395 8.79558 8.56066C8.73008 8.30736 8.69604 8.03566 8.6954 7.76107C8.6954 7.6738 8.7052 7.58993 8.7115 7.5038C9.1847 7.327 9.7559 6.6028 10.6799 6.001C11.0446 6.37047 11.2882 7.01647 11.2882 7.76107ZM1.0367 9.6662C1.0367 8.4116 1.6765 7.39047 2.4626 7.39047C2.73276 7.38833 2.99765 7.51155 3.22591 7.74554C3.45417 7.97953 3.63625 8.3145 3.7506 8.7108L4.0138 9.60727L4.5129 9.0406C4.86135 8.64415 5.27702 8.43196 5.7029 8.43313C6.0886 8.43313 6.6402 8.71533 7.0833 8.942C7.5026 9.15507 7.749 9.27747 7.9555 9.27747C8.0619 9.27747 8.148 9.24347 8.2215 9.1936C8.45007 9.92954 8.84411 10.4957 9.3226 10.7757C8.7962 10.7327 8.1984 10.4822 7.4816 9.84413C5.9465 8.4762 4.6774 9.129 4.2168 9.758C3.7562 10.3893 4.3274 11.7017 5.0456 10.9491C5.9927 9.95747 6.7025 11.1747 8.0003 11.8705C8.0577 11.9011 8.1088 11.917 8.1641 11.9431H2.4633C1.6772 11.9419 1.0367 10.9219 1.0367 9.6662ZM6.6276 13.6419H11.0705C10.9774 13.7054 10.8892 13.7575 10.7884 13.8346C9.5438 14.7073 8.8466 16.5818 7.5852 14.7685C7.1946 14.2063 6.8887 13.8629 6.6276 13.6419ZM12.264 15.2739C12.159 15.7579 11.8776 16.1103 11.5374 16.1103H10.0401C10.8493 15.6264 11.6424 15.3397 12.264 15.2739ZM1.0367 19.0434C1.0367 18.3634 1.386 17.8103 1.8144 17.8103H11.5367C11.9863 17.8085 12.4193 17.5358 12.7515 17.0454C13.0837 16.5549 13.2912 15.8818 13.3336 15.1572C13.4533 14.8421 13.4442 14.229 13.2132 13.7587C13.0757 13.2216 12.843 12.7624 12.5445 12.4391C12.246 12.1158 11.8951 11.9428 11.536 11.9419H10.5336C11.7516 11.2121 12.4544 9.55173 13.7249 9.95633C12.8338 9.1222 12.1576 9.48147 11.4338 9.96087C11.7827 9.36755 11.9779 8.58028 11.9791 7.76107C11.9791 6.92127 11.7747 6.1608 11.4471 5.58733C12.0946 5.3006 12.8779 5.11247 13.8544 5.15893C13.8544 5.15893 12.3312 3.3694 10.3544 4.32593L10.3488 4.29533C11.1454 3.6686 12.1898 3.22547 13.4813 3.22547C16.4115 3.22547 18.7957 7.05047 18.7957 11.7504C18.7957 16.4526 16.4115 20.2776 13.4813 20.2776H3.934C3.0611 18.1549 1.8977 18.4167 1.1781 19.7121C1.09015 19.5176 1.04083 19.2844 1.0367 19.0434ZM3.2515 22.967C4.1426 24.8982 5.7316 24.1706 5.7316 24.1706C5.7316 24.1706 5.068 23.9915 4.4709 21.9776H13.482C14.988 21.979 16.4451 21.1124 17.5924 19.533C18.2756 20.2221 19.0407 20.4159 19.0407 20.4159C18.5486 19.1148 18.6935 18.2841 18.8167 17.9112L19.0974 17.8591C20.6465 19.312 22.4826 17.7729 22.4826 17.7729C22.3888 17.6711 22.2975 17.5634 22.2089 17.4499C22.9782 17.3803 23.7484 17.3437 24.5189 17.34C27.4652 17.34 32.4079 17.9679 32.4079 22.1714C32.4079 25.6723 30.8987 27.4459 27.9209 27.4471C26.1513 27.4471 23.961 26.7999 21.4102 25.5238C18.9084 24.2726 15.1935 22.61 11.8503 22.61C8.9187 22.61 6.685 23.868 5.1422 26.3398C4.0033 25.2722 3.2515 22.967 3.2515 22.967ZM28.0028 34.9203C25.3953 34.9203 22.9488 34.3309 21.3556 33.8379C20.9412 33.7099 20.4659 33.5433 19.9458 33.3631C18.067 32.708 15.4952 31.8127 13.2622 31.8127C8.729 31.8127 7.7777 35.6331 7.7777 38.8393C7.7777 41.2715 8.1578 43.1947 8.9082 44.5559C10.8038 47.9955 14.9695 47.7541 21.4396 43.8067C24.2263 42.1045 26.9017 41.2409 29.3902 41.2409C34.9825 41.2409 38.8878 45.8229 38.8878 52.3838C38.8878 59.3379 36.638 63.5313 25.3386 64.2045C25.3365 64.1829 25.3372 64.1614 25.3351 64.1399C32.0936 61.3156 35.3878 57.8068 35.3878 53.4265C35.3878 50.0911 32.9812 47.9343 29.2558 47.9343C26.8632 47.9343 24.038 48.8353 21.0854 50.5399C17.1934 52.7873 14.0707 53.8809 11.5402 53.8809C6.2167 53.8809 3.6281 48.96 3.6281 38.8393C3.6281 29.0621 6.3168 24.31 11.8489 24.31C15.0542 24.31 18.6676 25.9318 21.1071 27.1513C23.7552 28.4761 26.047 29.1482 27.9195 29.1482C32.725 29.1471 33.4432 24.7781 33.4432 22.1725C33.4432 17.8387 30.4409 15.6411 24.5182 15.6411C23.4521 15.6411 22.351 15.7193 21.2646 15.8429C20.6416 14.3435 20.6668 13.0039 20.6668 13.0039C23.5487 15.3884 24.9445 10.7837 24.9445 10.7837C22.1228 11.5407 20.6234 8.72893 20.6234 8.72893C22.7612 9.23327 23.4598 6.61413 23.5501 6.22993C30.5011 7.03573 38.8878 10.438 38.8878 22.1703C38.8892 30.6295 35.2261 34.9203 28.0028 34.9203ZM11.1615 39.1861C7.9653 40.1959 10.2543 36.2463 10.2543 36.2463C10.5896 38.743 12.4691 37.6278 12.4691 37.6278C11.907 33.9263 15.0507 34.4046 15.0507 34.4046C14.3808 36.2814 15.5799 37.468 15.5799 37.468C16.8329 35.7147 20.1551 35.9233 20.1551 35.9233C19.1877 36.7064 18.6158 39.0445 18.6158 39.0445C21.3157 39.1329 22.8872 38.3361 22.8872 38.3361C21.7056 41.123 19.9857 41.7565 19.9857 41.7565C19.6462 40.0849 17.654 40.1608 17.654 40.1608C17.6582 42.5159 14.392 44.2691 14.392 44.2691C14.3808 41.7894 13.1061 40.9575 13.1061 40.9575C11.4751 45.3311 10.6715 42.6949 10.6715 42.6949C11.7341 41.3111 11.1615 39.1861 11.1615 39.1861Z" fill="white"/>
<path d="M9.99195 8.80372C10.3499 8.80372 10.6402 8.3369 10.6402 7.76105C10.6402 7.1852 10.3499 6.71838 9.99195 6.71838C9.63396 6.71838 9.34375 7.1852 9.34375 7.76105C9.34375 8.3369 9.63396 8.80372 9.99195 8.80372Z" fill="white"/>
<path d="M2.7209 7.65339C2.3485 7.35533 1.5694 9.22646 1.9432 9.52113C2.9113 10.3009 3.6932 8.42973 2.7209 7.65339Z" fill="white"/>
</svg>
